<svg width="1361" height="1528" viewBox="0 0 1361 1528" fill="none" xmlns="http://www.w3.org/2000/svg">
<path d="M322.498 1318.08C338.169 1326.09 357.365 1319.88 365.373 1304.21C373.381 1288.53 367.17 1269.34 351.499 1261.33C265.77 1217.45 193.319 1147.41 142.694 1060.53C93.4973 976.101 64.9996 875.765 64.9996 768.005C64.9996 660.245 93.4973 559.909 142.694 475.481C193.318 388.601 265.77 318.562 351.499 274.679C367.17 266.671 373.381 247.474 365.373 231.803C357.365 216.133 338.169 209.921 322.498 217.929C225.723 267.466 144.167 346.135 87.444 443.48C32.7058 537.418 0.997925 648.751 0.997925 768.005C0.997925 887.259 32.7058 998.592 87.444 1092.53C144.167 1189.87 225.723 1268.54 322.498 1318.08V1318.08Z" fill="#002F76"/>
<path d="M1039.5 217.925C1023.83 209.917 1004.63 216.129 996.625 231.8C988.617 247.47 994.828 266.667 1010.5 274.675C1096.23 318.557 1168.68 388.597 1219.3 475.477C1268.5 559.904 1297 660.241 1297 768.001C1297 875.761 1268.5 976.097 1219.3 1060.52C1168.68 1147.4 1096.23 1217.44 1010.5 1261.33C994.828 1269.33 988.617 1288.53 996.625 1304.2C1004.63 1319.87 1023.83 1326.08 1039.5 1318.08C1136.27 1268.54 1217.83 1189.87 1274.55 1092.53C1329.29 998.587 1361 887.254 1361 768C1361 648.746 1329.29 537.413 1274.55 443.475C1217.83 346.131 1136.28 267.461 1039.5 217.924V217.925Z" fill="#002F76"/>
<path d="M254.635 172.945C237.377 169.217 220.363 180.186 216.635 197.445C212.908 214.703 223.877 231.717 241.135 235.444L316.987 251.851L300.576 327.72C296.849 344.979 307.818 361.992 325.076 365.72C342.334 369.447 359.348 358.478 363.076 341.22L385.957 235.434C386.069 235.002 386.174 234.567 386.27 234.127C390.006 216.853 379.032 199.82 361.759 196.085L354.993 227.361L361.743 196.112L254.635 172.944L254.635 172.945Z" fill="#002F76"/>
<path d="M1108.71 1356.37C1125.97 1360.1 1142.98 1349.13 1146.71 1331.87C1150.44 1314.61 1139.47 1297.6 1122.21 1293.87L1046.36 1277.46L1062.77 1201.59C1066.5 1184.34 1055.53 1167.32 1038.27 1163.59C1021.01 1159.87 1004 1170.84 1000.27 1188.09L977.387 1293.88C977.274 1294.31 977.169 1294.75 977.074 1295.19C973.338 1312.46 984.311 1329.49 1001.59 1333.23L1008.35 1301.95L1001.6 1333.2L1108.71 1356.37L1108.71 1356.37Z" fill="#002F76"/>
<path d="M483.245 1258.79H666.311V1306.79H483.245V1258.79Z" fill="#002F76"/>
<path d="M483.245 1319.81H666.311V1367.82H483.245V1319.81Z" fill="#002F76"/>
<path d="M823.41 1412.43C808.831 1447.38 787.102 1475.94 761.107 1495.91C734.253 1516.54 702.934 1528 670.124 1528C621.315 1528 577.494 1503.11 546.105 1462.86C516.004 1424.27 497.383 1371.37 497.383 1313.3C497.383 1255.24 516.004 1202.34 546.105 1163.74C577.494 1123.5 621.315 1098.61 670.124 1098.61C699.085 1098.61 727.04 1107.57 751.835 1124.06C775.913 1140.07 796.907 1163.17 812.72 1191.94L770.72 1215.01C758.674 1193.08 743.054 1175.74 725.397 1164C708.457 1152.73 689.541 1146.61 670.124 1146.61C636.787 1146.61 606.236 1164.41 583.791 1193.18C560.062 1223.6 545.383 1266.05 545.383 1313.3C545.383 1360.56 560.062 1403 583.791 1433.43C606.236 1462.2 636.787 1480 670.124 1480C692.184 1480 713.508 1472.09 732.045 1457.85C751.441 1442.95 767.862 1421.13 779.159 1394.05L823.41 1412.43V1412.43Z" fill="#002F76"/>
<path d="M658.45 450.608V405.87C636.039 403.069 617.872 398.06 603.864 390.844C589.857 383.628 577.717 371.913 567.53 355.868C557.343 339.739 551.401 320.128 549.787 296.953L594.78 288.464C598.261 312.489 604.373 330.146 613.202 341.437C625.767 357.397 640.878 366.226 658.45 368.008V225.559C640.028 222.078 621.268 214.948 601.997 204.165C587.735 196.186 576.784 185.15 569.058 171.058C561.333 156.966 557.513 141.006 557.513 123.093C557.513 91.2591 568.803 65.452 591.3 45.7571C606.411 32.4283 628.822 24.3638 658.45 21.3933V0H684.851V21.3933C710.828 23.8547 731.543 31.4953 746.739 44.2288C766.348 60.443 778.064 82.7706 782.054 111.124L735.787 118.086C733.155 100.513 727.638 87.0142 719.233 77.6764C710.913 68.3386 699.453 62.1413 684.851 59.1697V188.207C707.348 193.895 722.289 198.309 729.59 201.449C743.512 207.563 754.888 215.033 763.632 223.777C772.461 232.606 779.252 243.047 783.921 255.102C788.675 267.241 791.052 280.315 791.052 294.407C791.052 325.478 781.119 351.285 761.424 371.998C741.73 392.797 716.176 403.834 684.851 405.361V450.609H658.45L658.45 450.608ZM658.45 58.6602C641.048 61.2917 627.295 68.2531 617.277 79.5433C607.26 90.8346 602.251 104.162 602.251 119.612C602.251 134.808 606.496 147.627 615.07 157.899C623.644 168.171 638.076 176.405 658.45 182.518V58.6597V58.6602ZM684.851 368.007C702.255 365.885 716.602 358.329 727.977 345.426C739.352 332.522 745.04 316.478 745.04 297.377C745.04 281.163 740.965 268.089 732.986 258.241C724.921 248.394 708.876 239.566 684.851 231.755V368.007V368.007Z" fill="#002F76"/>
</svg>
