<svg width="201" height="32" viewBox="0 0 201 32" fill="none" xmlns="http://www.w3.org/2000/svg">
<path d="M184.395 14.8812L190.831 6.5113V14.8812H184.395ZM178.905 21.2055H190.831V27.5298L197.421 27.5295V21.2051H200.353V14.8809H197.421V0.526611L189.782 0.52694L178.905 14.1283V21.2055Z" fill="#00195C"/>
<path d="M158.437 27.5315H178.905V21.2058H168.355C168.355 21.2058 169.94 19.9968 171.02 19.1205C173.447 17.1527 178.529 13.9733 178.529 8.67926C178.529 4.6026 176.658 0 168.259 0C161.22 0 158.369 5.05192 158.369 10.6205H165.292C165.292 9.31694 165.517 5.72589 168.483 5.72589C171.45 5.72589 171.636 7.74324 171.636 8.64161C171.636 11.1466 169.056 12.9615 165.705 16.1613L158.437 22.6264V27.5315Z" fill="#00195C"/>
<path d="M109.869 17.4174L113.067 7.61739L116.302 17.4174H109.869ZM100.192 27.5297H106.631L108.272 22.8577H117.899L119.54 27.5297H126.186L116.927 2.04395L109.338 2.04395L100.192 27.5297Z" fill="#00195C"/>
<path d="M85.7992 22.1858V16.5197H88.6711C91.8357 16.5197 93.7281 17.0582 93.7281 19.2803C93.7281 21.5025 91.7981 22.1106 89.1605 22.1858H85.7992ZM79.7563 27.5297H88.7087C96.1248 27.5297 99.7744 23.8002 99.7744 19.2803C99.7744 14.7605 96.6506 11.3882 88.7087 11.3882H85.7992V7.3789H96.9117V2.04395H79.7563V27.5297Z" fill="#00195C"/>
<path d="M54.937 27.5297H60.9743V16.7452H69.6259V27.5297H75.6463V2.04395H69.6259V11.1636H60.9743V2.04395H54.937V27.5297Z" fill="#00195C"/>
<path d="M9.12407 21.9592C9.83933 20.0017 10.7429 16.6915 10.7429 11.267V6.8718H18.0837L18.0836 21.9592H9.12407ZM0.353516 21.9592L0.353609 31.6386H6.38384V27.5297H21.0897V31.6386H27.1249L27.1248 21.9592H24.1132L24.1133 2.04395L4.71923 2.04395V10.2506C4.71923 16.2774 3.81565 19.8511 3.10039 21.9592H0.353516Z" fill="#00195C"/>
<path d="M34.6739 14.6989C34.6739 9.4606 37.5871 7.79273 40.2097 7.79273C42.8322 7.79273 45.7166 9.4606 45.7166 14.6989C45.7166 19.7094 43.7088 22.0213 40.2097 22.0213C36.7105 22.0213 34.6739 19.7094 34.6739 14.6989ZM28.457 14.6989C28.457 22.0191 32.4429 28.076 40.2097 28.076C47.9764 28.076 51.9623 22.0191 51.9623 14.6989C51.9623 7.3787 47.9217 1.5188 40.2097 1.5188C32.4977 1.5188 28.457 7.3787 28.457 14.6989Z" fill="#00195C"/>
<path d="M137.911 7.64552C135.288 7.64552 132.534 9.3994 132.534 14.6884C132.534 19.9774 134.411 22.0108 137.911 22.0108C140.317 22.0108 142.139 20.9654 142.139 18.6055H148.546C148.546 24.1546 143.681 28.0655 138.07 28.0655C130.303 28.0655 126.317 22.0086 126.317 14.6884C126.317 7.36821 130.358 1.5083 138.07 1.5083C143.681 1.5083 148.496 5.5121 148.496 10.5946H141.879C141.879 8.6778 139.666 7.64552 137.911 7.64552Z" fill="#00195C"/>
<circle cx="153.457" cy="14.6118" r="3.99318" fill="#DBB42B"/>
</svg>
