<svg width="200" height="32" viewBox="0 0 200 32" fill="none" xmlns="http://www.w3.org/2000/svg">
<path d="M184.042 14.8812L190.478 6.5113V14.8812H184.042ZM178.552 21.2055H190.478V27.5298L197.068 27.5295V21.2051H200V14.8809H197.068V0.526611L189.429 0.52694L178.552 14.1283V21.2055Z" fill="#F4F4F4"/>
<path d="M158.084 27.5315H178.552V21.2058H168.002C168.002 21.2058 169.587 19.9968 170.667 19.1205C173.093 17.1527 178.175 13.9733 178.175 8.67926C178.175 4.6026 176.304 0 167.905 0C160.866 0 158.015 5.05192 158.015 10.6205H164.939C164.939 9.31694 165.163 5.72589 168.13 5.72589C171.097 5.72589 171.282 7.74324 171.282 8.64161C171.282 11.1466 168.702 12.9615 165.352 16.1613L158.084 22.6264V27.5315Z" fill="#F4F4F4"/>
<path d="M109.515 17.4176L112.713 7.61764L115.948 17.4176H109.515ZM99.8386 27.5299H106.278L107.918 22.858H117.545L119.186 27.5299H125.832L116.573 2.04419L108.984 2.04419L99.8386 27.5299Z" fill="#F4F4F4"/>
<path d="M85.4456 22.1861V16.52H88.3176C91.4822 16.52 93.3746 17.0584 93.3746 19.2806C93.3746 21.5027 91.4445 22.1108 88.807 22.1861H85.4456ZM79.4028 27.5299H88.3552C95.7713 27.5299 99.4209 23.8004 99.4209 19.2806C99.4209 14.7607 96.2971 11.3884 88.3552 11.3884H85.4456V7.37915H96.5582V2.04419H79.4028V27.5299Z" fill="#F4F4F4"/>
<path d="M54.5835 27.5299H60.6208V16.7455H69.2724V27.5299H75.2928V2.04419H69.2724V11.1638H60.6208V2.04419H54.5835V27.5299Z" fill="#F4F4F4"/>
<path d="M8.77055 21.9594C9.48581 20.0019 10.3894 16.6918 10.3894 11.2672V6.87205H17.7302L17.7301 21.9594H8.77055ZM0 21.9594L9.36072e-05 31.6388H6.03033V27.5299H20.7362V31.6388H26.7714L26.7713 21.9594H23.7597L23.7598 2.04419L4.36571 2.04419V10.2508C4.36571 16.2777 3.46214 19.8513 2.74688 21.9594H0Z" fill="#F4F4F4"/>
<path d="M34.3204 14.6989C34.3204 9.4606 37.2336 7.79273 39.8562 7.79273C42.4787 7.79273 45.3631 9.4606 45.3631 14.6989C45.3631 19.7094 43.3553 22.0213 39.8562 22.0213C36.357 22.0213 34.3204 19.7094 34.3204 14.6989ZM28.1035 14.6989C28.1035 22.0191 32.0894 28.076 39.8562 28.076C47.6229 28.076 51.6088 22.0191 51.6088 14.6989C51.6088 7.3787 47.5682 1.5188 39.8562 1.5188C32.1441 1.5188 28.1035 7.3787 28.1035 14.6989Z" fill="#F4F4F4"/>
<path d="M137.557 7.64552C134.934 7.64552 132.181 9.3994 132.181 14.6884C132.181 19.9774 134.058 22.0108 137.557 22.0108C139.963 22.0108 141.786 20.9654 141.786 18.6055H148.192C148.192 24.1546 143.328 28.0655 137.717 28.0655C129.95 28.0655 125.964 22.0086 125.964 14.6884C125.964 7.36821 130.004 1.5083 137.717 1.5083C143.328 1.5083 148.143 5.5121 148.143 10.5946H141.525C141.525 8.6778 139.312 7.64552 137.557 7.64552Z" fill="#F4F4F4"/>
<circle cx="153.104" cy="14.6118" r="3.99318" fill="#DBB42B"/>
</svg>
