<svg width="57" height="56" viewBox="0 0 57 56" fill="none" xmlns="http://www.w3.org/2000/svg">
<path d="M28.2 54.8602C43.0288 54.8602 55.05 42.839 55.05 28.0102C55.05 13.1813 43.0288 1.16016 28.2 1.16016C13.3711 1.16016 1.34998 13.1813 1.34998 28.0102C1.34998 42.839 13.3711 54.8602 28.2 54.8602Z" stroke="#002F76" stroke-width="2" stroke-miterlimit="10"/>
<path d="M29 46.9004H27.37C23.9222 46.9004 20.6156 45.5308 18.1776 43.0928C15.7396 40.6548 14.37 37.3482 14.37 33.9004V33.9004C18.8252 35.8329 23.6338 36.8171 28.49 36.7904C33.1748 36.7517 37.8037 35.7687 42.1 33.9004V33.9004C42.1 35.616 41.7605 37.3147 41.101 38.8985C40.4414 40.4823 39.4749 41.9198 38.2571 43.1283C37.0393 44.3368 35.5944 45.2923 34.0056 45.9397C32.4168 46.5871 30.7156 46.9136 29 46.9004Z" stroke="#002F76" stroke-width="2" stroke-linecap="round" stroke-linejoin="round"/>
<path d="M37.9999 43.3603C36.0999 42.1203 32.4499 41.2803 28.2499 41.2803C24.0499 41.2803 20.3999 42.1203 18.5099 43.3603C20.9205 45.6324 24.1074 46.8986 27.4199 46.9003H28.9999C32.3436 46.9216 35.5668 45.6538 37.9999 43.3603Z" stroke="#002F76" stroke-width="1.93" stroke-linecap="round" stroke-linejoin="round"/>
<path d="M10 24.6097C11.5556 22.6802 13.7548 21.3763 16.1941 20.9373C18.6335 20.4983 21.1493 20.9536 23.28 22.2197C20.9469 21.983 18.5958 22.4403 16.5215 23.5344C14.4473 24.6284 12.7422 26.3105 11.62 28.3697" stroke="#002F76" stroke-width="2" stroke-linecap="round" stroke-linejoin="round"/>
<path d="M45.84 24.6097C44.2844 22.6802 42.0852 21.3763 39.6458 20.9373C37.2065 20.4983 34.6907 20.9536 32.56 22.2197C34.8931 21.983 37.2442 22.4403 39.3185 23.5344C41.3927 24.6284 43.0978 26.3105 44.22 28.3697" stroke="#002F76" stroke-width="2" stroke-linecap="round" stroke-linejoin="round"/>
<path d="M9 18.2104C10.6671 16.5741 12.6792 15.3315 14.8888 14.5737C17.0984 13.8158 19.4495 13.5618 21.77 13.8304" stroke="#002F76" stroke-width="2" stroke-linecap="round" stroke-linejoin="round"/>
<path d="M47.45 18.2099C45.7852 16.5732 43.775 15.3302 41.5669 14.5723C39.3588 13.8143 37.009 13.5606 34.69 13.8299" stroke="#002F76" stroke-width="2" stroke-linecap="round" stroke-linejoin="round"/>
</svg>
