<svg width="200" height="200" viewBox="0 0 200 200" fill="none" xmlns="http://www.w3.org/2000/svg">
<circle cx="100" cy="100" r="100" fill="#DBB42B"/>
<path d="M118.218 79.4172C109.774 73.3016 102.111 59.4609 101.486 49H98.5144C98.0453 59.4609 90.3827 73.3016 81.7819 79.4172L81 80.0609L88.5062 109.352H91.4774L84.284 81.3484C90.07 76.8422 95.3868 69.2781 98.5144 61.3922V79.5781C95.856 80.2219 93.9794 82.6359 93.9794 85.5328C93.9794 88.9125 96.6379 91.6484 99.9218 91.6484C103.206 91.6484 105.864 88.9125 105.864 85.5328C105.864 82.6359 103.988 80.2219 101.329 79.5781V61.3922C104.457 69.2781 109.617 76.8422 115.56 81.3484L108.366 109.352H111.337L118.844 80.0609L118.218 79.4172ZM103.049 85.5328C103.049 87.3031 101.642 88.7516 99.9218 88.7516C98.2016 88.7516 96.7942 87.3031 96.7942 85.5328C96.7942 83.7625 98.2016 82.3141 99.9218 82.3141C101.798 82.3141 103.049 83.7625 103.049 85.5328Z" fill="#F4F4F4"/>
<path d="M108.366 109.352H91.6337H88.5061H84.7531V152H115.403V109.352H111.494H108.366ZM112.432 148.942H87.5679V119.812H112.432V148.942ZM112.432 116.755H87.5679V112.248H112.432V116.755Z" fill="#F4F4F4"/>
</svg>
