<svg width="352" height="304" viewBox="0 0 352 304" fill="none" xmlns="http://www.w3.org/2000/svg">
<g opacity="0.8">
<path d="M181.5 102.904C215.341 102.904 242.774 81.7385 242.774 55.6292C242.774 29.52 215.341 8.35425 181.5 8.35425C147.659 8.35425 120.226 29.52 120.226 55.6292C120.226 81.7385 147.659 102.904 181.5 102.904Z" fill="#F1F5FC"/>
</g>
<path opacity="0.9" d="M181 102C214.137 102 241 81.1812 241 55.5C241 29.8188 214.137 9 181 9C147.863 9 121 29.8188 121 55.5C121 81.1812 147.863 102 181 102Z" fill="#002F76"/>
<path opacity="0.1" d="M130.506 60.885C130.506 35.1525 157.246 14.2918 190.235 14.2918C200.477 14.2351 210.617 16.3426 220 20.4782C209.501 13.3384 195.766 9 180.734 9C147.745 9 121 29.8607 121 55.5932C121 72.8714 133.059 87.9531 150.973 96C138.431 87.4575 130.506 74.8957 130.506 60.885Z" fill="white"/>
<path opacity="0.5" d="M181 74L247.5 189.002L314 304H181H48L114.5 189.002L181 74Z" fill="#94AAF9"/>
<g opacity="0.3">
<path d="M197.13 236.953L202.317 221.622C205.979 210.66 202.017 198.603 192.557 191.919L192.599 191.894C190.559 190.463 188.322 189.334 185.957 188.542V188.542L185.885 188.517L185.805 188.492V188.492C183.51 187.718 181.116 187.27 178.696 187.159C177.839 187.115 176.981 187.115 176.125 187.159C174.639 187.237 173.163 187.44 171.712 187.767C171.291 187.859 170.871 187.964 170.488 188.077C170.105 188.19 169.676 188.311 169.276 188.441C168.477 188.705 167.69 189.003 166.92 189.342C166.533 189.51 166.151 189.686 165.776 189.874C164.644 190.431 163.554 191.07 162.516 191.785C162.167 192.024 161.826 192.271 161.489 192.522C157.331 195.672 154.218 199.993 152.554 204.925L144.401 229.08C143.118 232.868 142.732 236.9 143.273 240.862C143.358 241.469 143.463 242.073 143.585 242.672C143.707 243.271 143.858 243.862 144.005 244.448C144.119 244.838 144.237 245.228 144.367 245.613C144.561 246.187 144.788 246.761 145.003 247.323C145.158 247.696 145.322 248.068 145.495 248.437C145.835 249.17 146.214 249.887 146.622 250.587C147.03 251.286 147.464 251.969 147.952 252.631C148.305 253.126 148.679 253.612 149.066 254.081C149.588 254.71 150.135 255.338 150.715 255.895C153.228 258.418 156.235 260.399 159.55 261.715V261.715V261.715L159.693 261.774C159.871 261.459 160.068 261.156 160.282 260.865C161.544 259.142 163.74 257.932 165.831 258.384C165.982 258.418 166.134 258.464 166.285 258.51C167.345 258.883 168.389 259.549 169.411 259.876C170.164 260.213 171.027 260.202 171.771 259.846C173.816 258.761 173.058 255.338 174.813 253.838C174.894 253.769 174.98 253.704 175.069 253.645C175.044 253.615 175.022 253.583 175.002 253.549C176.357 252.711 178.233 253.268 179.794 253.809C181.476 254.399 183.672 254.797 184.842 253.427C185.633 252.489 185.574 251.06 186.327 250.075C187.202 248.944 188.851 248.818 190.277 249.02L190.349 249.041C193.083 250.163 196.07 248.299 195.86 245.362C195.611 241.444 196.848 237.753 197.13 236.953Z" fill="#F1F5FC"/>
</g>
<path d="M160.398 259.119C161.615 257.441 163.705 256.267 165.706 256.724C167.708 257.181 169.605 259.098 171.386 258.138C173.821 256.829 172.095 252.018 176.048 251.661C176.872 251.607 177.697 251.751 178.454 252.081C180.122 252.765 182.733 253.536 184.017 251.997C184.772 251.091 184.718 249.711 185.439 248.771C186.273 247.681 187.862 247.543 189.217 247.752L189.284 247.773C191.899 248.86 194.759 247.056 194.555 244.221C194.292 240.446 195.485 236.889 195.744 236.117L200.698 221.306C205.084 208.089 198.031 193.79 184.914 189.307V189.307C171.774 184.9 157.563 191.996 153.108 205.187L145.298 228.479C141.084 241.195 147.449 255.012 159.818 260C159.994 259.695 160.187 259.401 160.398 259.119V259.119Z" fill="white"/>
<path opacity="0.2" d="M169.5 206C170.881 206 172 204.881 172 203.5C172 202.119 170.881 201 169.5 201C168.119 201 167 202.119 167 203.5C167 204.881 168.119 206 169.5 206Z" fill="#002F76"/>
<path opacity="0.2" d="M185.5 211C186.881 211 188 209.881 188 208.5C188 207.119 186.881 206 185.5 206C184.119 206 183 207.119 183 208.5C183 209.881 184.119 211 185.5 211Z" fill="#002F76"/>
<path opacity="0.2" d="M176.732 217.075C177.451 214.939 176.879 212.819 175.454 212.339C174.029 211.859 172.291 213.202 171.572 215.339C170.853 217.475 171.426 219.596 172.851 220.075C174.275 220.555 176.013 219.212 176.732 217.075Z" fill="#002F76"/>
<path d="M231 208C233.209 208 235 206.209 235 204C235 201.791 233.209 200 231 200C228.791 200 227 201.791 227 204C227 206.209 228.791 208 231 208Z" fill="white"/>
<path d="M244 199C245.105 199 246 198.105 246 197C246 195.895 245.105 195 244 195C242.895 195 242 195.895 242 197C242 198.105 242.895 199 244 199Z" fill="white"/>
<g opacity="0.5">
<g opacity="0.3">
<path d="M202.13 72.9525L207.317 57.6215C210.979 46.6603 207.017 34.603 197.557 27.919L197.599 27.8939C195.559 26.4633 193.322 25.3342 190.957 24.5419V24.5419L190.885 24.5168L190.805 24.4916V24.4916C188.51 23.7183 186.116 23.2698 183.696 23.1592C182.839 23.1152 181.981 23.1152 181.125 23.1592C179.639 23.2367 178.163 23.4399 176.712 23.7668C176.291 23.8589 175.871 23.9637 175.488 24.0768C175.105 24.19 174.676 24.3115 174.276 24.4413C173.477 24.7053 172.69 25.0028 171.92 25.3422C171.533 25.5098 171.151 25.6858 170.776 25.8743C169.644 26.4311 168.554 27.0696 167.516 27.7849C167.167 28.0238 166.826 28.271 166.489 28.5224C162.331 31.6719 159.218 35.9926 157.554 40.9246L149.401 65.0796C148.118 68.8678 147.732 72.9003 148.273 76.8617C148.358 77.4693 148.463 78.0726 148.585 78.6718C148.707 79.271 148.858 79.8617 149.005 80.4483C149.119 80.838 149.237 81.2277 149.367 81.6131C149.561 82.1872 149.788 82.7612 150.003 83.3226C150.158 83.6955 150.322 84.0684 150.495 84.4372C150.835 85.1704 151.214 85.8869 151.622 86.5866C152.03 87.2863 152.464 87.9693 152.952 88.6313C153.305 89.1257 153.679 89.6117 154.066 90.081C154.588 90.7095 155.135 91.317 155.715 91.8953C158.228 94.4183 161.235 96.3994 164.55 97.7151V97.7151V97.7151L164.693 97.7738C164.871 97.4593 165.068 97.1557 165.282 96.8645C166.544 95.1425 168.74 93.9316 170.831 94.3841C170.982 94.4176 171.134 94.4637 171.285 94.5098C172.345 94.8827 173.389 95.5489 174.411 95.8757C175.164 96.2125 176.027 96.2018 176.771 95.8464C178.816 94.7612 178.058 91.338 179.813 89.838C179.894 89.7688 179.98 89.7044 180.069 89.6453C180.044 89.6148 180.022 89.5826 180.002 89.5489C181.357 88.7109 183.233 89.2682 184.794 89.8087C186.476 90.3995 188.672 90.7975 189.842 89.4274C190.633 88.4888 190.574 87.0601 191.327 86.0754C192.202 84.9441 193.851 84.8184 195.277 85.0196H195.349C198.083 86.1425 201.07 84.2779 200.86 81.3408C200.611 77.4441 201.848 73.7528 202.13 72.9525Z" fill="#F1F5FC"/>
</g>
<path d="M165.757 95.574C166.986 93.8981 169.093 92.7249 171.113 93.1816C173.132 93.6383 175.046 95.5531 176.842 94.5936C179.299 93.2863 177.558 88.4805 181.546 88.1243C182.377 88.0696 183.209 88.2133 183.973 88.5433C185.656 89.2263 188.289 89.9972 189.585 88.4595C190.347 87.5545 190.292 86.176 191.02 85.2374C191.861 84.1481 193.464 84.0098 194.831 84.2193L194.898 84.2402C197.536 85.3254 200.422 83.5238 200.216 80.6913C199.951 76.9204 201.154 73.3673 201.415 72.5964L206.413 57.8017C210.838 44.5982 203.723 30.3143 190.49 25.8366V25.8366C177.234 21.4347 162.898 28.5225 158.404 41.6997L150.524 64.9665C146.273 77.6692 152.694 91.4716 165.173 96.4539C165.35 96.1495 165.545 95.8557 165.757 95.574Z" fill="white"/>
<path opacity="0.2" d="M175.071 42.102C176.584 42.102 177.81 40.8808 177.81 39.3744C177.81 37.8679 176.584 36.6467 175.071 36.6467C173.559 36.6467 172.333 37.8679 172.333 39.3744C172.333 40.8808 173.559 42.102 175.071 42.102Z" fill="#002F76"/>
<path opacity="0.2" d="M190.645 47.3183C192.158 47.3183 193.384 46.0971 193.384 44.5907C193.384 43.0842 192.158 41.863 190.645 41.863C189.133 41.863 187.907 43.0842 187.907 44.5907C187.907 46.0971 189.133 47.3183 190.645 47.3183Z" fill="#002F76"/>
</g>
<path opacity="0.1" d="M238.441 41C239.221 44.0148 239.614 47.1167 239.611 50.2308C239.611 75.9385 212.712 96.779 179.528 96.779C152.369 96.7622 129.422 82.807 122 63.6573C127.513 84.9594 151.79 101 180.913 101C214.097 101 241 80.1594 241 54.4517C240.991 49.8476 240.123 45.2856 238.441 41V41Z" fill="#002F76"/>
<g opacity="0.8">
<path d="M181 107.621C249.294 107.621 304.658 93.1802 304.658 75.3667C304.658 57.5532 249.294 43.1125 181 43.1125C112.706 43.1125 57.3424 57.5532 57.3424 75.3667C57.3424 93.1802 112.706 107.621 181 107.621Z" fill="#F1F5FC"/>
</g>
<path d="M181 44C114.728 44 61 57.8767 61 75H301C301 57.8767 247.272 44 181 44Z" fill="white"/>
<path d="M181 107C247.272 107 301 93.1214 301 76H61C61 93.1214 114.728 107 181 107Z" fill="white"/>
<path opacity="0.05" d="M181 107C247.272 107 301 93.1214 301 76H61C61 93.1214 114.728 107 181 107Z" fill="#002F76"/>
<rect opacity="0.05" x="124" y="68" width="114" height="16" rx="8" fill="#002F76"/>
<path opacity="0.5" d="M56.5076 24.049C55.7412 23.7148 55.3463 22.8604 55.5888 22.0607C55.6077 22.001 55.6197 21.9394 55.6247 21.8771V21.8771C55.6482 21.5131 55.4294 21.177 55.0869 21.0509C54.7444 20.9248 54.3597 21.0386 54.1412 21.3307V21.3307C54.1053 21.3809 54.0752 21.435 54.0515 21.492C53.7186 22.2593 52.862 22.6545 52.0616 22.41C52.0017 22.3917 51.9401 22.3797 51.8778 22.3742V22.3742C51.5135 22.3507 51.1772 22.5693 51.0509 22.9115C50.9247 23.2537 51.0386 23.6381 51.331 23.8565V23.8565C51.3805 23.8946 51.4348 23.9262 51.4924 23.9505C52.2588 24.2847 52.6537 25.1392 52.4112 25.9389C52.3928 25.9971 52.3808 26.0572 52.3753 26.118V26.118C52.3496 26.4828 52.5676 26.8209 52.9107 26.9483C53.2538 27.0757 53.6399 26.9619 53.8588 26.6688V26.6688C53.8957 26.6176 53.9258 26.5619 53.9485 26.5031C54.2895 25.7445 55.1439 25.36 55.9384 25.6075C55.9983 25.6258 56.0599 25.6378 56.1222 25.6433V25.6433C56.4865 25.6668 56.8228 25.4482 56.9491 25.106C57.0753 24.7638 56.9614 24.3793 56.669 24.161V24.161C56.6205 24.1165 56.5662 24.0789 56.5076 24.049Z" fill="#002F76"/>
<path opacity="0.5" d="M269.506 152.049C268.745 151.707 268.36 150.854 268.606 150.061C268.625 150.001 268.637 149.939 268.642 149.877V149.877C268.666 149.513 268.446 149.177 268.102 149.051C267.758 148.925 267.372 149.039 267.153 149.331V149.331C267.117 149.381 267.087 149.435 267.063 149.492C266.729 150.259 265.869 150.654 265.066 150.41C265.005 150.392 264.944 150.38 264.881 150.374V150.374C264.515 150.351 264.178 150.569 264.051 150.911C263.924 151.254 264.039 151.638 264.332 151.856V151.856C264.382 151.895 264.436 151.926 264.494 151.951C265.255 152.293 265.64 153.145 265.394 153.939C265.376 153.997 265.363 154.057 265.358 154.118V154.118C265.332 154.483 265.551 154.821 265.895 154.948C266.24 155.076 266.627 154.962 266.847 154.669V154.669C266.884 154.618 266.914 154.562 266.937 154.503C267.279 153.745 268.137 153.36 268.934 153.607C268.995 153.626 269.056 153.638 269.119 153.643V153.643C269.485 153.667 269.822 153.448 269.949 153.106C270.076 152.764 269.961 152.379 269.668 152.161V152.161C269.619 152.117 269.565 152.079 269.506 152.049V152.049Z" fill="#002F76"/>
<path opacity="0.5" d="M34.5076 211.049C33.7412 210.715 33.3463 209.86 33.5888 209.061C33.6077 209.001 33.6197 208.939 33.6247 208.877V208.877C33.6482 208.513 33.4294 208.177 33.0869 208.051C32.7444 207.925 32.3597 208.039 32.1412 208.331V208.331C32.1053 208.381 32.0752 208.435 32.0515 208.492C31.7186 209.259 30.862 209.654 30.0616 209.41C30.0017 209.392 29.9401 209.38 29.8778 209.374V209.374C29.5135 209.351 29.1772 209.569 29.0509 209.911C28.9247 210.254 29.0386 210.638 29.331 210.856V210.856C29.3805 210.895 29.4348 210.926 29.4924 210.951C30.2588 211.285 30.6537 212.139 30.4112 212.939C30.3928 212.997 30.3808 213.057 30.3753 213.118V213.118C30.3496 213.483 30.5676 213.821 30.9107 213.948C31.2538 214.076 31.6399 213.962 31.8588 213.669V213.669C31.8957 213.618 31.9258 213.562 31.9485 213.503C32.2895 212.745 33.1439 212.36 33.9384 212.607C33.9983 212.626 34.0599 212.638 34.1222 212.643V212.643C34.4865 212.667 34.8228 212.448 34.9491 212.106C35.0753 211.764 34.9614 211.379 34.669 211.161V211.161C34.6205 211.117 34.5662 211.079 34.5076 211.049Z" fill="#002F76"/>
<path opacity="0.5" d="M11.4852 73.049C10.7275 72.7068 10.3433 71.8545 10.5888 71.0607C10.6077 71.001 10.6197 70.9394 10.6247 70.8771V70.8771C10.6482 70.5131 10.4294 70.177 10.0869 70.0509C9.74444 69.9248 9.35971 70.0386 9.14118 70.3307V70.3307C9.10529 70.3809 9.07522 70.435 9.05154 70.492C8.71862 71.2593 7.86205 71.6545 7.06157 71.41C7.00173 71.3917 6.94015 71.3797 6.87781 71.3742V71.3742C6.51355 71.3507 6.17718 71.5693 6.05095 71.9115C5.92471 72.2537 6.03864 72.6381 6.33101 72.8565V72.8565C6.38052 72.8946 6.43475 72.9262 6.49236 72.9505C7.25883 73.2847 7.65367 74.1392 7.41116 74.9389C7.39277 74.9971 7.38075 75.0572 7.3753 75.118V75.118C7.34956 75.4828 7.56757 75.8209 7.91068 75.9483C8.25379 76.0757 8.63988 75.9619 8.85882 75.6688V75.6688C8.89565 75.6176 8.92577 75.5619 8.94846 75.5031C9.28947 74.7445 10.1439 74.36 10.9384 74.6075C10.9983 74.6258 11.0599 74.6378 11.1222 74.6433V74.6433C11.4865 74.6668 11.8228 74.4482 11.9491 74.106C12.0753 73.7638 11.9614 73.3793 11.669 73.161V73.161C11.6136 73.1148 11.5517 73.077 11.4852 73.049Z" fill="#002F76"/>
<path opacity="0.5" d="M265.507 3.02454C264.762 2.68504 264.384 1.83959 264.626 1.05217C264.644 0.99299 264.656 0.931894 264.661 0.870041V0.870041C264.684 0.509005 264.469 0.175613 264.132 0.0504942C263.796 -0.0746248 263.417 0.0382993 263.203 0.328085V0.328085C263.167 0.377859 263.138 0.43151 263.114 0.488007C262.779 1.24051 261.939 1.62196 261.158 1.37646C261.099 1.35829 261.039 1.34638 260.977 1.34092V1.34092C260.585 1.25791 260.191 1.4767 260.051 1.85561C259.911 2.23452 260.067 2.65967 260.418 2.85573V2.85573C260.466 2.89359 260.52 2.92494 260.576 2.94902C261.321 3.28852 261.699 4.13397 261.458 4.92139C261.44 4.97916 261.428 5.03874 261.422 5.09908V5.09908C261.384 5.47564 261.607 5.82948 261.962 5.95424C262.316 6.07901 262.709 5.94207 262.912 5.62326V5.62326C262.948 5.57249 262.978 5.51725 263 5.4589C263.335 4.7064 264.175 4.32495 264.956 4.57045C265.015 4.58862 265.076 4.60053 265.137 4.60599V4.60599C265.495 4.62927 265.826 4.41245 265.95 4.07298C266.074 3.73352 265.962 3.35219 265.675 3.1356V3.1356C265.624 3.09082 265.568 3.05344 265.507 3.02454V3.02454Z" fill="#002F76"/>
<g opacity="0.5">
<rect x="45.8823" y="107.378" width="1.23529" height="7.55556" fill="#94AAF9"/>
<path d="M50 110.489V111.822H43V110.489H50Z" fill="#94AAF9"/>
</g>
<g opacity="0.5">
<rect x="347.882" y="74.3777" width="1.23529" height="7.55556" fill="#94AAF9"/>
<path d="M352 77.4888V78.8221H345V77.4888H352Z" fill="#94AAF9"/>
</g>
<g opacity="0.5">
<rect x="305.882" y="190.378" width="1.23529" height="7.55556" fill="#94AAF9"/>
<path d="M310 193.489V194.822H303V193.489H310Z" fill="#94AAF9"/>
</g>
<path opacity="0.5" d="M302.5 37C303.881 37 305 35.8807 305 34.5C305 33.1193 303.881 32 302.5 32C301.119 32 300 33.1193 300 34.5C300 35.8807 301.119 37 302.5 37Z" fill="#94AAF9"/>
<path opacity="0.5" d="M2.5 8C3.88071 8 5 6.88071 5 5.5C5 4.11929 3.88071 3 2.5 3C1.11929 3 0 4.11929 0 5.5C0 6.88071 1.11929 8 2.5 8Z" fill="#94AAF9"/>
<path opacity="0.5" d="M78.5 152C79.8807 152 81 150.881 81 149.5C81 148.119 79.8807 147 78.5 147C77.1193 147 76 148.119 76 149.5C76 150.881 77.1193 152 78.5 152Z" fill="#94AAF9"/>
<path opacity="0.05" d="M98 68C105.732 68 112 66.6569 112 65C112 63.3431 105.732 62 98 62C90.268 62 84 63.3431 84 65C84 66.6569 90.268 68 98 68Z" fill="#002F76"/>
<path opacity="0.05" d="M98 90C105.732 90 112 88.6569 112 87C112 85.3431 105.732 84 98 84C90.268 84 84 85.3431 84 87C84 88.6569 90.268 90 98 90Z" fill="#002F76"/>
<path opacity="0.05" d="M260 68C267.732 68 274 66.6569 274 65C274 63.3431 267.732 62 260 62C252.268 62 246 63.3431 246 65C246 66.6569 252.268 68 260 68Z" fill="#002F76"/>
<path opacity="0.05" d="M260 90C267.732 90 274 88.6569 274 87C274 85.3431 267.732 84 260 84C252.268 84 246 85.3431 246 87C246 88.6569 252.268 90 260 90Z" fill="#002F76"/>
<path opacity="0.05" d="M181 55C188.732 55 195 53.6569 195 52C195 50.3431 188.732 49 181 49C173.268 49 167 50.3431 167 52C167 53.6569 173.268 55 181 55Z" fill="#002F76"/>
<path opacity="0.05" d="M191 25C198.732 25 205 23.6569 205 22C205 20.3431 198.732 19 191 19C183.268 19 177 20.3431 177 22C177 23.6569 183.268 25 191 25Z" fill="#002F76"/>
<path opacity="0.05" d="M164 37C171.732 37 178 35.6569 178 34C178 32.3431 171.732 31 164 31C156.268 31 150 32.3431 150 34C150 35.6569 156.268 37 164 37Z" fill="#002F76"/>
<path opacity="0.05" d="M217 42C224.732 42 231 40.6569 231 39C231 37.3431 224.732 36 217 36C209.268 36 203 37.3431 203 39C203 40.6569 209.268 42 217 42Z" fill="#002F76"/>
<path opacity="0.05" d="M181 99C188.732 99 195 97.6569 195 96C195 94.3431 188.732 93 181 93C173.268 93 167 94.3431 167 96C167 97.6569 173.268 99 181 99Z" fill="#002F76"/>
</svg>
