<svg width="181" height="88" viewBox="0 0 181 88" fill="none" xmlns="http://www.w3.org/2000/svg">
<path fill-rule="evenodd" clip-rule="evenodd" d="M132.4 24.4L110.4 37.1L106.1 32.8L98.9 25.6C93.9 31.6 87.6 35.9 79.3 36.4C70.3 37 61.3 32.8 53.3 29.3C48.7 27.3 43.3 25 38.3 24.3C35.5 23.9 32.8 24 30.1 25.1C27 26.5 24 29.2 21.4 31.5C17 35.5 12.8 39.1 7.90002 42.4L0.400024 47.5L2.40002 38.7C5.00002 27.5 10 15.2 21.3 10.2C33.4 4.8 48.3 9.9 59.6 14.9C73.1 20.9 82.1 24.6 90.9 9.4L96 0.5L113 17.5L135 4.8L139.3 9.1L152.9 22.7L169.1 6.5L180.2 17.6L152.8 45L132.4 24.4Z" fill="#94AAF9"/>
<path fill-rule="evenodd" clip-rule="evenodd" d="M132.4 64.1L110.4 76.8L106.1 72.5L98.9 65.3C93.9 71.3 87.6 75.6 79.3 76.1C70.3 76.7 61.3 72.5 53.3 69C48.7 67 43.3 64.7 38.3 64C35.5 63.6 32.8 63.7 30.1 64.8C27 66.2 24 68.9 21.4 71.2C17 75.2 12.8 78.8 7.90002 82.1L0.400024 87.2L2.40002 78.4C5.00002 67.2 10 54.9 21.3 49.9C33.4 44.5 48.3 49.6 59.6 54.6C73.1 60.6 82.1 64.3 90.9 49.1L96 40.2L112.9 57.1L134.9 44.4L139.2 48.7L152.8 62.3L169 46.1L180.1 57.2L152.7 84.6L132.4 64.1Z" fill="#002F76"/>
</svg>
