<svg width="181" height="171" viewBox="0 0 181 171" fill="none" xmlns="http://www.w3.org/2000/svg">
<path fill-rule="evenodd" clip-rule="evenodd" d="M98.7 100.9C98.7 103.3 98.8 105.6 98.9 108C99.2 113.6 99.7 119.2 100.3 124.7C101.4 134.4 102.9 144 104.6 153.6C105.4 158 106.2 162.3 107.1 166.7L108 171H72.2L73.1 166.7C74 162.4 74.8 158 75.6 153.6C77.3 144 78.8 134.4 79.9 124.7C80.5 119.1 81.1 113.6 81.3 108C81.4 105.7 81.5 103.3 81.5 100.9H97.8H98.7V100.9Z" fill="#94AAF9"/>
<path fill-rule="evenodd" clip-rule="evenodd" d="M98.8 97.1H86.2V60.8C86.2 45.3 89.3 28.5 99.4 16.2C107.1 6.90002 117.8 1.60002 129.8 0.900018C133.7 0.600018 137.7 0.900018 141.5 1.60002C155.2 4.00002 168.4 12.2 175.3 24.5C180.9 34.5 181.4 45.6 177.7 56.4L176.9 58.8H153L153.8 54.5C155.1 47.6 155.6 39.5 153.4 32.8C152 28.7 149.6 24.9 145.5 23.2C141.7 21.6 137.6 22.1 133.8 23.5C128.2 25.7 123.4 30 119.6 34.5C106.4 50.2 100.8 74 99 93.9L98.8 97.1Z" fill="#002F76"/>
<path fill-rule="evenodd" clip-rule="evenodd" d="M81.3001 93.9C79.5001 74 73.9 50.2 60.7 34.5C56.9 30 52 25.7 46.5 23.5C42.8 22.1 38.6001 21.6 34.8001 23.2C30.7001 24.9 28.2 28.7 26.9 32.8C24.7 39.6 25.2 47.7 26.5 54.5L27.3001 58.8H3.50002L2.69997 56.4C-1.10003 45.7 -0.500005 34.5 5.1 24.5C12 12.2 25.2 4.00004 38.9 1.60004C42.8 0.900044 46.7 0.700045 50.6 0.900045C62.6 1.70004 73.3 6.90005 81 16.2C91.2 28.5 94.2 45.2 94.2 60.8V97.1H81.6L81.3001 93.9Z" fill="#002F76"/>
</svg>
