<svg width="171" height="181" viewBox="0 0 171 181" fill="none" xmlns="http://www.w3.org/2000/svg">
<path fill-rule="evenodd" clip-rule="evenodd" d="M126.3 0.399902C139.1 0.399902 150.4 6.5999 158.4 16.3999C166.8 26.5999 170.9 39.6999 170.9 52.7999C170.9 65.8999 166.7 78.9999 158.4 89.1999C150.4 98.9999 139 105.2 126.3 105.2C113.5 105.2 102.2 98.9999 94.2 89.1999C85.8 78.9999 81.7 65.8999 81.7 52.7999C81.7 39.6999 85.9 26.5999 94.2 16.3999C102.2 6.5999 113.6 0.399902 126.3 0.399902ZM144.8 27.5999C140.2 21.9999 133.8 18.0999 126.4 18.0999C119 18.0999 112.6 21.9999 108 27.5999C102.3 34.5999 99.5999 43.7999 99.5999 52.6999C99.5999 61.6999 102.3 70.7999 108 77.7999C112.6 83.3999 119 87.2999 126.4 87.2999C133.8 87.2999 140.2 83.3999 144.8 77.7999C150.5 70.7999 153.2 61.5999 153.2 52.6999C153.2 43.7999 150.5 34.5999 144.8 27.5999Z" fill="#002F76"/>
<path fill-rule="evenodd" clip-rule="evenodd" d="M80.0001 164.6C86.8001 158.9 93.4001 152.4 99.5001 146.1C112.7 132.5 125.3 117.4 135.3 101.2C144.2 86.6999 152.2 69.4999 153.2 52.2999C153.5 47.3999 157.7 43.6999 162.6 43.9999C167.5 44.2999 171.2 48.4999 170.9 53.3999C169.8 72.2999 161.9 90.8999 152.4 107C141.7 125.2 127.8 142.2 113.2 157.4C106.4 164.5 99.0001 171.8 91.5001 178.2C87.8001 181.4 82.1001 180.9 79.0001 177.2C75.8001 173.3 76.3001 167.7 80.0001 164.6Z" fill="#002F76"/>
<path fill-rule="evenodd" clip-rule="evenodd" d="M45.2 180.2C32.4 180.2 21.1 174 13.1 164.2C4.69998 154 0.599976 140.9 0.599976 127.8C0.599976 114.7 4.79998 101.6 13.1 91.3999C21.1 81.5999 32.5 75.3999 45.2 75.3999C58 75.3999 69.3 81.5999 77.3 91.3999C85.7 101.6 89.8 114.7 89.8 127.8C89.8 140.9 85.6 154 77.3 164.2C69.3 174 57.9 180.2 45.2 180.2ZM26.7 153C31.3 158.6 37.7 162.5 45.1 162.5C52.5 162.5 58.9 158.6 63.5 153C69.2 146 71.9 136.8 71.9 127.9C71.9 118.9 69.2 109.8 63.5 102.8C58.9 97.1999 52.5 93.2999 45.1 93.2999C37.7 93.2999 31.3 97.1999 26.7 102.8C21 109.8 18.3 119 18.3 127.9C18.3 136.8 21 146 26.7 153Z" fill="#94AAF9"/>
<path fill-rule="evenodd" clip-rule="evenodd" d="M91.5 16C84.7 21.7 78.1 28.2 72 34.5C58.8 48.1 46.2 63.2 36.2 79.4C27.3 93.9 19.3 111.1 18.3 128.3C18 133.2 13.8 136.9 8.90002 136.6C4.00002 136.3 0.299972 132.1 0.599972 127.2C1.69997 108.3 9.59997 89.7 19.1 73.6C29.8 55.4 43.7 38.4 58.3 23.2C65.1 16.1 72.5 8.79997 80 2.39997C83.7 -0.800027 89.4 -0.300027 92.5 3.39997C95.7 7.29997 95.2 12.9 91.5 16Z" fill="#94AAF9"/>
</svg>
