<svg width="158" height="180" viewBox="0 0 158 180" fill="none" xmlns="http://www.w3.org/2000/svg">
<path fill-rule="evenodd" clip-rule="evenodd" d="M9.19998 40.5C9.19998 40.5 63.1 18 108.1 27C108.1 27 52.3 77.3 52.3 126.7L63.7 123.6C63.7 123.6 72.2 71.9 157.6 0L13.7 9L9.19998 40.5Z" fill="#002F76"/>
<path fill-rule="evenodd" clip-rule="evenodd" d="M0.299988 179.8C0.299988 179.8 33.6 125.5 65.1 103.1L68.2 114.9L0.299988 179.8Z" fill="#94AAF9"/>
<path d="M107 102.4C117 107.1 124.7 114.5 129 122.6C133.7 131.4 134.6 141.1 130.7 149.7C126.8 158.3 118.8 164 109.1 166.1C99.9 168.2 89.2 167.1 78.9 162.4C68.7 157.7 60.8 150.3 56.4 142C51.7 133.2 50.8 123.5 54.7 114.9L59.8 117.2L59.5 117L54.7 114.8C54.8 114.6 54.9 114.5 55 114.3C59 106 66.9 100.5 76.4 98.3999C85.4 96.3999 96 97.3999 106.1 101.9C106.4 102.1 106.7 102.2 107 102.4ZM119.1 127.9C115.8 121.8 109.9 116.2 102.2 112.6C102.1 112.5 101.9 112.5 101.8 112.4C93.9 108.8 85.6 107.9 78.7 109.5C72.5 110.9 67.5 114.3 65 119.3C64.9 119.6 64.8 119.8 64.7 120.1C62.5 125.3 63.2 131.3 66.2 136.9C69.5 143.1 75.6 148.8 83.5 152.4C91.4 156 99.7 156.9 106.6 155.3C113 153.9 118.1 150.4 120.5 145.1C122.9 139.8 122.2 133.6 119.1 127.9Z" fill="#94AAF9"/>
</svg>
