<svg width="158" height="181" viewBox="0 0 158 181" fill="none" xmlns="http://www.w3.org/2000/svg">
<path fill-rule="evenodd" clip-rule="evenodd" d="M51.9001 63.8C47.7001 49.2 48.1001 34.1 58.3001 20.5C83.0001 -12.4 144.6 -4.99997 147.6 42.9L147.7 46.4C147.1 68.4 140.3 76.1 130.7 94.6C124 108 96.6001 164.2 121.3 173.2C132.1 177.1 146.5 169.8 153.9 161.9C157 158.6 157.6 157.8 157.8 157.7C157.1 161.2 157.4 160.6 155.8 163.3C148.7 175.1 129.8 184.5 116.4 178.3C89.6001 165.9 110.2 113.3 118.3 94.8C126 77.1 134.8 66.8 134.6 46.7C134.2 16.9 101.4 7.80002 79.9001 22.3C61.6001 34.6 64.5001 55.1 72.5001 72.8C66.4001 68.1 59.3001 65.1 51.9001 63.8ZM157.7 157.6C157.8 157.6 157.7 157.6 157.7 157.6V157.6Z" fill="#002F76"/>
<path d="M43.9 66.9C55.9 66.9 66.7 71.7 74.5 79.6C82.3 87.4 87.2 98.3 87.2 110.2C87.2 122.2 82.4 133 74.5 140.8C66.7 148.6 55.8 153.5 43.9 153.5C31.9 153.5 21.1 148.7 13.3 140.8C5.50005 133 0.599976 122.1 0.599976 110.2C0.599976 98.2 5.40005 87.4 13.3 79.6C21.1 71.7 31.9 66.9 43.9 66.9ZM63.3 90.7C58.3 85.7 51.4 82.6 43.8 82.6C36.2 82.6 29.3 85.7 24.3 90.7C19.3 95.7 16.2 102.6 16.2 110.2C16.2 117.8 19.3 124.7 24.3 129.7C29.3 134.7 36.2 137.8 43.8 137.8C51.4 137.8 58.3 134.7 63.3 129.7C68.3 124.7 71.4 117.8 71.4 110.2C71.4 102.6 68.3 95.7 63.3 90.7Z" fill="#94AAF9"/>
</svg>
