<svg width="159" height="180" viewBox="0 0 159 180" fill="none" xmlns="http://www.w3.org/2000/svg">
<path d="M111.6 77.4H47.9V102.5H111.6V77.4Z" fill="#94AAF9"/>
<path fill-rule="evenodd" clip-rule="evenodd" d="M154.8 17.3C105 66 105 113.9 154.8 162.6L158.9 166.7L133.1 179.9L131 177.8C81.1 129 81.1 51 131 2.19998L133.1 0.0999756L159 13.2L154.8 17.3Z" fill="#002F76"/>
<path fill-rule="evenodd" clip-rule="evenodd" d="M0.5 13.2L26.3 0L28.4 2.1C78.3 50.9 78.3 128.9 28.4 177.7L26.3 179.8L0.5 166.6L4.59998 162.5C54.4 113.8 54.4 65.9 4.59998 17.2L0.5 13.2Z" fill="#002F76"/>
</svg>
