<svg width="181" height="181" viewBox="0 0 181 181" fill="none" xmlns="http://www.w3.org/2000/svg">
<path fill-rule="evenodd" clip-rule="evenodd" d="M2 151.1C11.8 145 21.5 138 31.1 130.4C34.4 133.6 37.7 136.8 40.9 140C44.1 143.2 47.3 146.5 50.5 149.8C42.9 159.4 35.9 169.1 29.8 178.9L15.9 165L2 151.1ZM49.9 114.5C55 120.4 60.5 125.9 66.4 131C75.6 120.6 85.4 110.3 95.4 100.2C116 79.4001 137.5 59.3001 157 39.9001L140.9 23.8C112.1 52.7 81.7 86.3001 49.9 114.5Z" fill="#002F76"/>
<path d="M124.4 2.00006L175.9 0.900085L180.1 0.800049L180 5.00006L178.9 56.5001L124.4 2.00006Z" fill="#94AAF9"/>
<path fill-rule="evenodd" clip-rule="evenodd" d="M23.2 82.0001C41.4 115.8 65.1 139.5 98.9 157.7L78.9 180.6C75.7 166.7 14.2 105.2 0.300049 102L23.2 82.0001Z" fill="#94AAF9"/>
</svg>
