<svg width="181" height="175" viewBox="0 0 181 175" fill="none" xmlns="http://www.w3.org/2000/svg">
<path d="M174.5 145.2C165 160.8 152.6 176.8 132.2 174.4C125.8 173.6 120.2 170.8 116.1 165.7C112.1 160.9 109.7 154.1 109.4 145.2V144.9V98.4001H129.4V144.9C129.5 148.9 130.4 151.5 131.6 153.1C132.3 154 133.3 154.5 134.6 154.6C142.5 155.5 161.9 145.2 165.9 138.7L174.5 145.2Z" fill="#94AAF9"/>
<path d="M142.3 132.2L175.1 134.1L180.7 134.5L180.3 140.1L178.4 172.8L142.3 132.2Z" fill="#94AAF9"/>
<path fill-rule="evenodd" clip-rule="evenodd" d="M78.5 25.0001L101.5 1.80005L132.6 9.20007V29.0001L78.5 25.0001Z" fill="#94AAF9"/>
<path d="M129.2 17.6001H109.3V137H129.2V17.6001Z" fill="#94AAF9"/>
<path fill-rule="evenodd" clip-rule="evenodd" d="M13.6 0.800049L0.799988 22.6H34.5L38.5 7.40009L13.6 0.800049Z" fill="#002F76"/>
<path d="M35.2 17.6001H15.3V137H35.2V17.6001Z" fill="#002F76"/>
<path fill-rule="evenodd" clip-rule="evenodd" d="M35.2 135.3L42.8 145.9L25.2 160.2L7.70001 145.9L15.3 135.3H35.2Z" fill="#002F76"/>
<path fill-rule="evenodd" clip-rule="evenodd" d="M30.2 25.0001L53.2 1.80005L84.3 9.20007L80.9 28.7001L30.2 25.0001Z" fill="#002F76"/>
<path d="M80.9 17.6001H61V137H80.9V17.6001Z" fill="#002F76"/>
<path fill-rule="evenodd" clip-rule="evenodd" d="M80.9 135.3L88.4 145.9L70.9 160.2L53.4 145.9L61 135.3H80.9Z" fill="#002F76"/>
</svg>
