<svg width="180" height="150" viewBox="0 0 180 150" fill="none" xmlns="http://www.w3.org/2000/svg">
<path fill-rule="evenodd" clip-rule="evenodd" d="M89.9 55C102.5 55 114.5 60 123.4 68.9C132.3 77.8 137.3 89.8 137.3 102.4C137.3 115 132.3 127 123.4 135.9C114.5 144.8 102.5 149.8 89.9 149.8C77.3 149.8 65.3 144.8 56.4 135.9C47.5 127 42.5 115 42.5 102.4C42.5 89.8 47.5 77.8 56.4 68.9C65.4 60 77.3 55 89.9 55ZM112.1 80.2C106.2 74.3 98.3 71 89.9 71C81.5 71 73.6 74.3 67.7 80.2C61.8 86.1 58.5 94 58.5 102.4C58.5 110.8 61.8 118.7 67.7 124.6C73.6 130.5 81.5 133.8 89.9 133.8C98.3 133.8 106.2 130.5 112.1 124.6C118 118.7 121.3 110.8 121.3 102.4C121.3 94 118 86.1 112.1 80.2Z" fill="#94AAF9"/>
<path fill-rule="evenodd" clip-rule="evenodd" d="M2 17.8C5.1 13.2 9.9 8.10005 14.5 5.00005C26.4 -2.99995 36.8 1.30005 43.7 13.4V13.5001C50.6 24.4001 59.1 36.5001 68.8 45.2001C74.6 50.3001 81.8 55.1001 89.8 55.1001C97.8 55.1001 105.1 50.3001 110.8 45.2001C120.5 36.6001 129 24.5001 135.9 13.5001V13.4C140 6.30005 146.2 0.100053 155.1 1.00005C158.7 1.40005 162.1 2.90005 165.2 5.00005C169.8 8.10005 174.6 13.1 177.7 17.8L179.7 20.7001L166.5 29.6001L164.5 26.7001C163 24.4001 160.6 21.8001 158.4 20.2001C157.2 19.2001 155.2 18.0001 153.6 18.0001C151.7 18.0001 150.3 20.1001 149.5 21.6001L149.4 21.8C142.1 35.3 132.6 49.1 120.6 58.8C111.8 65.9 101.3 70.9 89.8 70.9C78.3 70.9 67.8 65.9 59 58.8C46.9 49.1 37.4 35.3 30.2 21.8L30.1 21.6001C29.3 20.1001 27.9 18.0001 26 18.0001C22.3 18.0001 17 23.9001 15.1 26.7001L13.1 29.6001L0 20.7001L2 17.8Z" fill="#002F76"/>
</svg>
