<svg width="180" height="179" viewBox="0 0 180 179" fill="none" xmlns="http://www.w3.org/2000/svg">
<path fill-rule="evenodd" clip-rule="evenodd" d="M71.1 23.3L92.1 2L120.6 8.79999V27L71.1 23.3Z" fill="#002F76"/>
<path d="M117.4 16.5H99.2V125.7H117.4V16.5Z" fill="#002F76"/>
<path fill-rule="evenodd" clip-rule="evenodd" d="M117.4 124.2L124.4 133.9L107.4 140.1L80.9 149L99.2 124.2H117.4Z" fill="#002F76"/>
<path fill-rule="evenodd" clip-rule="evenodd" d="M106.3 135.1V179L123.7 168.9L120.9 132.1L106.3 135.1Z" fill="#002F76"/>
<path fill-rule="evenodd" clip-rule="evenodd" d="M133.7 0.400024L112.6 32.1L115.7 44.7L137.2 13.6L133.7 0.400024Z" fill="#002F76"/>
<path fill-rule="evenodd" clip-rule="evenodd" d="M117.4 124.2L157.4 128.4L159.6 14.9L134.8 13.4L133.7 0.400024H174.9C174.9 0.400024 170 89.1 179.8 124.8L164.4 145.4L119.1 135.8L117.4 124.2Z" fill="#002F76"/>
<path fill-rule="evenodd" clip-rule="evenodd" d="M11.7 1.19995L0 21.0999H30.8L34.5 7.19995L11.7 1.19995Z" fill="#94AAF9"/>
<path d="M31.4 16.5H13.2V125.7H31.4V16.5Z" fill="#94AAF9"/>
<path fill-rule="evenodd" clip-rule="evenodd" d="M31.4 124.2L38.4 133.9L22.3 147L6.29999 133.9L13.2 124.2H31.4Z" fill="#94AAF9"/>
<path fill-rule="evenodd" clip-rule="evenodd" d="M26.8 23.3L47.9 2L76.4 8.79999L73.2 26.7L26.8 23.3Z" fill="#94AAF9"/>
<path d="M73.2 16.5H55V125.7H73.2V16.5Z" fill="#94AAF9"/>
<path fill-rule="evenodd" clip-rule="evenodd" d="M73.2 124.2L80.1 133.9L64.1 147L48.1 133.9L55 124.2H73.2Z" fill="#94AAF9"/>
</svg>
