<svg width="240" height="240" viewBox="0 0 240 240" fill="none" xmlns="http://www.w3.org/2000/svg">
<path d="M145.9 93.7999C142.5 90.3999 138.5 87.6999 134 85.7999C129.7 83.9999 124.9 82.9999 119.9 82.9999C114.9 82.9999 110.1 83.9999 105.8 85.7999C101.3 87.6999 97.3 90.3999 93.9 93.7999C87.2 100.5 83.1 109.7 83.1 119.8C83.1 124.8 84.1 129.6 85.9 133.9C87.8 138.4 90.5 142.4 93.9 145.8C97.3 149.2 101.3 151.9 105.8 153.8C110.1 155.6 114.9 156.6 119.9 156.6C124.9 156.6 129.7 155.6 134 153.8C138.5 151.9 142.5 149.2 145.9 145.8C149.3 142.4 152 138.3 153.9 133.9C155.7 129.6 156.7 124.8 156.7 119.8C156.7 114.8 155.7 110 153.9 105.7C152 101.3 149.3 97.2999 145.9 93.7999ZM137 78.2999C142.5 80.5999 147.5 83.8999 151.6 87.9999C155.7 92.0999 159.1 97.0999 161.4 102.6C163.6 107.9 164.8 113.7 164.8 119.8C164.8 125.9 163.6 131.7 161.4 137C159.1 142.5 155.8 147.5 151.6 151.6C147.5 155.7 142.5 159.1 137 161.3C131.7 163.5 125.9 164.7 119.8 164.7C113.7 164.7 107.9 163.5 102.6 161.3C97.1 159 92.1 155.7 88 151.6C83.9 147.5 80.5 142.5 78.2 137C76 131.7 74.8 125.9 74.8 119.8C74.8 107.4 79.8 96.0999 88 87.9999C92.1 83.8999 97.1 80.4999 102.6 78.2999C107.9 76.0999 113.7 74.8999 119.8 74.8999C125.9 74.8999 131.7 76.0999 137 78.2999Z" fill="#F49424"/>
<path d="M66.8 115.8H30V124H66.8V115.8Z" fill="#F49424"/>
<path d="M124 173H115.8V209.8H124V173Z" fill="#F49424"/>
<path d="M79.4414 154.56L53.4201 180.581L59.2183 186.379L85.2396 160.358L79.4414 154.56Z" fill="#F49424"/>
<path d="M59.1763 53.3815L53.3781 59.1797L79.3994 85.201L85.1976 79.4028L59.1763 53.3815Z" fill="#F49424"/>
<path d="M209.8 115.8H173V124H209.8V115.8Z" fill="#F49424"/>
<path d="M124 30H115.8V66.8H124V30Z" fill="#F49424"/>
<path d="M180.512 53.413L154.491 79.4343L160.289 85.2325L186.31 59.2113L180.512 53.413Z" fill="#F49424"/>
<path d="M160.328 154.596L154.53 160.395L180.551 186.416L186.349 180.618L160.328 154.596Z" fill="#F49424"/>
</svg>
