<svg width="240" height="240" viewBox="0 0 240 240" fill="none" xmlns="http://www.w3.org/2000/svg">
<path d="M162.4 84.2C170.5 84.2 178 86.8999 183.9 91.3999C189.7 95.7999 194 101.8 196.2 108.8C200.2 111.8 203.5 115.5 205.8 119.9C208.3 124.5 209.6 129.7 209.6 135.3C209.6 144.5 205.8 152.8 199.6 158.8C194.3 163.9 187.5 168.1 179.7 168.5H93.5C90.8 168.5 91.3 168.4 88.7 167.8C83.8 166.7 79.4 164.2 76 160.8C71.4 156.2 68.5 149.8 68.5 142.8C68.5 135.7 71.4 129.2 76.2 124.6C80.9 120 87.5 117.1 94.7 117.1C94.9 117.1 95.2 117.1 95.5 117.1C96.8 112 99.6 107.5 103.4 104.1C108 99.9999 114.2 97.4999 120.9 97.4999C123.6 97.4999 126.2 97.9 128.7 98.7C130 99.1 131.3 99.6 132.5 100.2C135.4 95.8 139.2 92.0999 143.7 89.3999C149.3 86.0999 155.6 84.2 162.4 84.2ZM179.6 97.2C174.8 93.6 168.9 91.4999 162.4 91.4999C156.9 91.4999 151.9 92.9999 147.6 95.5999C143.2 98.2999 139.5 102.1 137.2 106.7L135.4 110.3L132.1 108C130.5 107 128.8 106.1 127 105.6C125.2 105.1 123.3 104.8 121.3 104.8C116.4 104.8 111.9 106.6 108.5 109.6C105.1 112.6 102.8 116.8 102.4 121.4L102 125.2L98.2999 124.6C97.8999 124.5 97.3 124.5 96.7 124.4C96.2 124.4 95.7 124.3 95.1 124.3C89.8 124.3 85.1 126.4 81.6 129.7C78.2 133 76.1 137.7 76.1 142.7C76.1 147.7 78.1 152.2 81.4 155.6C84.7 158.9 88.6999 160.8 93.7999 161C93.9999 161 94.3 161 94.5 161H180C185.8 160.2 190.9 157.5 194.9 153.6C199.7 148.9 202.7 142.4 202.7 135.3C202.7 131 201.6 126.9 199.7 123.4C197.7 119.7 194.8 116.5 191.3 114.1L189.8 112C188.1 106.1 184.5 100.9 179.6 97.2Z" fill="#0237BF"/>
<path d="M148.8 82.9001C146.4 83.8001 144.1 84.9001 141.9 86.2001C141.7 86.3001 141.6 86.4001 141.4 86.5001C124.7 76.3001 105.9 84.5001 97.4 101.2C82 90.8001 66.8 97.7001 63.7 116.1C50.9 114 37.2999 120.6 37.2999 134.9C37.2999 140 39.3999 144.7 42.7999 148.1C49.4999 154.8 58.5 153.6 67.1 153.6C68.2 156.3 69.7 158.9 71.6 161.2C59.1 161.2 47.6999 163.1 37.7999 153.3C33.0999 148.6 30.2 142.1 30.2 134.9C30.2 119.9 42.8999 108.1 57.7999 108.6C61.6999 92.9001 82.0999 84.8001 94.7999 91.0001C106.1 73.7001 132.5 69.8001 148.8 82.9001Z" fill="#0237BF"/>
</svg>
