<svg width="240" height="240" viewBox="0 0 240 240" fill="none" xmlns="http://www.w3.org/2000/svg">
<path d="M187 141.1H171.6C171.2 139.6 170.6 138.1 169.8 136.7L169.7 136.5L168.8 135L168 133.7H187C191.2 133.7 195.1 132 197.8 129.2C200.6 126.4 202.3 122.6 202.3 118.4C202.3 117.2 202.2 116.1 202 115.1C201.2 111.7 199.3 108.7 196.7 106.5C194.1 104.4 190.8 103.1 187.2 103.1C186.1 103.1 184.9 103.2 183.8 103.5L183.1 103.7L180.4 104.3L179 101.9L178.6 101.3C177.3 98.8999 175.3 96.8999 173 95.4999C170.7 94.0999 168 93.3999 165.3 93.3999C164.6 93.3999 163.9 93.4999 163.2 93.4999C162.5 93.5999 161.8 93.7999 161.1 93.9999L160.3 94.1999L157.3 95.0999L155.9 92.2999L155.5 91.5999C154.2 88.9999 152.2 86.8999 149.9 85.4999C147.6 84.0999 144.8 83.2999 141.9 83.2999C137.7 83.2999 133.9 84.9999 131.1 87.7999C128.3 90.5999 126.6 94.3999 126.6 98.5999V99.4999V102.5L123.7 103.2L122.8 103.4L122.3 103.5C118.4 103.9 115 105.7 112.6 108.5C110.2 111.2 108.7 114.8 108.7 118.7C108.7 122.9 110.4 126.7 113.2 129.5C116 132.3 119.8 134 124 134H131.8L131 135.4L130.2 136.7C129.2 138.2 128.7 139.7 128.3 141.4H124.1C117.8 141.4 112.1 138.8 108 134.7C103.9 130.6 101.3 124.9 101.3 118.6C101.3 112.8 103.5 107.4 107.1 103.4C110.2 99.8999 114.4 97.3999 119.3 96.3999C119.8 90.9999 122.2 86.1999 125.9 82.5999C130 78.4999 135.7 75.8999 142 75.8999C146.3 75.8999 150.4 77.0999 153.9 79.2999C156.8 81.0999 159.3 83.4999 161.2 86.4999C161.6 86.3999 161.9 86.3999 162.3 86.2999C163.4 86.0999 164.4 86.0999 165.4 86.0999C169.5 86.0999 173.5 87.1999 176.9 89.2999C179.8 90.9999 182.3 93.2999 184.2 96.1999C185.2 96.0999 186.3 95.9999 187.3 95.9999C192.7 95.9999 197.7 97.8999 201.6 101.1C205.5 104.3 208.3 108.7 209.4 113.8C209.8 115.4 209.9 117.1 209.9 118.7C209.9 125 207.3 130.7 203.2 134.8C198.9 138.5 193.3 141.1 187 141.1Z" fill="#0237BF"/>
<path d="M100.3 130.5H56.1C48.9 130.5 42.3 127.6 37.6 122.8C32.9 118 29.9 111.5 29.9 104.3C29.9 102.4 30.1 100.5 30.5 98.7C31.8 92.8 35.1 87.7 39.5 84C44 80.3 49.7 78.1 56 78.1C57.3 78.1 58.6 78.2 59.9 78.4C62.1 75 65.1 72.2 68.6 70.1C72.6 67.8 77.2 66.5 81.9 66.5C83.1 66.5 84.3 66.6 85.6 66.8C86.1 66.9 86.7 67 87.2 67.1C89.4 63.5 92.4 60.5 95.9 58.4C99.9 55.9 104.7 54.5 109.6 54.5C116.8 54.5 123.4 57.5 128.1 62.2C131.1 65.2 133.3 68.8 134.6 72.9C132.2 73.6 129.8 74.6 127.7 76C126.8 72.7 125.1 69.8 122.8 67.5C119.4 64.1 114.7 62 109.6 62C106.1 62 102.7 63 99.8 64.8C96.9 66.6 94.5 69.1 92.9 72.3L92.5 73.1L91.1 75.9L88.1 75L87.2 74.7C86.4 74.5 85.5 74.3 84.6 74.2C83.8 74.1 82.9 74 82 74C78.6 74 75.3 74.9 72.5 76.6C69.7 78.3 67.3 80.7 65.6 83.7L65.2 84.4L63.9 86.9L61.2 86.3L60.4 86.1C59 85.8 57.6 85.7 56.2 85.7C51.8 85.7 47.7 87.3 44.5 89.9C41.3 92.5 38.9 96.2 38 100.4C37.7 101.7 37.6 103 37.6 104.4C37.6 109.6 39.7 114.3 43.1 117.7C46.5 121.1 51.2 123.2 56.3 123.2H97.8C98.3 125.6 99.1 128.1 100.3 130.5Z" fill="#0237BF"/>
<path d="M147.7 116.5C148.4 116.2 149.1 116.1 149.8 116.1C150.6 116.1 151.3 116.2 151.9 116.5C152.6 116.8 153.2 117.2 153.7 117.7C153.9 117.9 154.1 118.1 154.3 118.3C154.5 118.5 154.6 118.8 154.8 119L165.5 136.7L166.4 138.3L166.5 138.5C167.2 139.8 167.7 141.1 168 142.5C168.3 143.8 168.5 145.2 168.5 146.7C168.5 149.2 168 151.5 167 153.7C166 155.9 164.6 157.9 162.9 159.6C161.2 161.2 159.1 162.6 156.9 163.5C154.7 164.4 152.3 164.9 149.8 164.9C147.3 164.9 144.9 164.4 142.7 163.6C140.4 162.7 138.3 161.4 136.6 159.7C134.9 158 133.5 156.1 132.5 153.8C131.6 151.6 131.1 149.3 131.1 146.8C131.1 145.3 131.3 143.9 131.6 142.6C132 141.2 132.5 139.8 133.1 138.6L133.2 138.5L134.1 137L144.8 119.3C145 119 145.1 118.8 145.3 118.6C145.5 118.4 145.7 118.2 145.9 118C146.4 117.2 147 116.8 147.7 116.5ZM149.8 125.3L140.6 140.7L139.8 142C139.4 142.8 139.1 143.5 138.9 144.3C138.7 145.1 138.6 145.9 138.6 146.7C138.6 148.1 138.9 149.5 139.4 150.7C140 152 140.8 153.1 141.8 154.1C142.8 155.1 144.1 155.9 145.5 156.4C146.9 156.9 148.3 157.2 149.9 157.2C151.4 157.2 152.9 156.9 154.3 156.4C155.7 155.9 156.9 155.1 157.9 154.1C158.9 153.1 159.7 152 160.3 150.7C160.8 149.5 161.1 148.1 161.1 146.7C161.1 145.9 161 145.1 160.8 144.3C160.6 143.5 160.3 142.8 160 142.1L159.1 140.6L149.8 125.3Z" fill="#0237BF"/>
<path d="M112.4 154C113 153.7 113.6 153.6 114.3 153.6C115 153.6 115.6 153.7 116.2 154C116.8 154.2 117.3 154.6 117.7 155C117.9 155.2 118 155.3 118.2 155.5C118.3 155.7 118.5 155.9 118.6 156.1L125.3 167.4L125.9 168.4L126 168.6C126.5 169.5 126.8 170.4 127.1 171.4C127.3 172.3 127.5 173.3 127.5 174.4C127.5 176.2 127.1 177.8 126.5 179.3C125.8 180.9 124.9 182.3 123.7 183.5L123.6 183.6C122.4 184.7 121 185.6 119.5 186.2C118 186.8 116.3 187.2 114.5 187.2C112.7 187.2 111.1 186.9 109.5 186.3C107.9 185.7 106.5 184.7 105.3 183.5C104.1 182.3 103.1 180.9 102.4 179.3C101.8 177.8 101.4 176.1 101.4 174.4C101.4 173.4 101.5 172.4 101.8 171.4C102.1 170.4 102.4 169.4 102.9 168.6L103 168.5L103.6 167.5L110.3 156.2C110.4 156 110.6 155.8 110.7 155.6C110.9 155.3 111.1 155.2 111.2 155.1C111.3 154.6 111.8 154.2 112.4 154ZM114.3 163.5L109.8 171.2L109.3 172C109.1 172.4 108.9 172.8 108.8 173.2C108.7 173.6 108.6 174 108.6 174.4C108.6 175.1 108.7 175.8 109 176.5C109.3 177.1 109.7 177.7 110.2 178.2C110.7 178.7 111.3 179.1 112 179.4C112.7 179.7 113.4 179.8 114.2 179.8C115 179.8 115.7 179.6 116.4 179.4C117.1 179.1 117.7 178.7 118.2 178.2L118.3 178.1C118.8 177.6 119.1 177.1 119.4 176.5C119.7 175.9 119.8 175.2 119.8 174.5C119.8 174.1 119.7 173.7 119.6 173.3C119.5 172.9 119.4 172.6 119.2 172.2L118.7 171.3L114.3 163.5Z" fill="#0237BF"/>
<path d="M183.5 154C184.1 153.7 184.7 153.6 185.4 153.6C186.1 153.6 186.7 153.7 187.3 154C187.9 154.2 188.4 154.6 188.8 155C189 155.2 189.1 155.3 189.3 155.5C189.4 155.7 189.6 155.9 189.7 156.1L196.4 167.4L197 168.4L197.1 168.6C197.6 169.5 197.9 170.4 198.2 171.4C198.4 172.3 198.6 173.3 198.6 174.4C198.6 176.2 198.2 177.8 197.6 179.3C196.9 180.9 196 182.3 194.8 183.5L194.7 183.6C193.5 184.7 192.1 185.6 190.6 186.2C189.1 186.8 187.4 187.2 185.6 187.2C183.8 187.2 182.2 186.9 180.6 186.3C179 185.7 177.6 184.7 176.4 183.5C175.2 182.3 174.2 180.9 173.5 179.3C172.9 177.8 172.5 176.1 172.5 174.4C172.5 173.4 172.6 172.4 172.9 171.4C173.2 170.4 173.5 169.4 174 168.6L174.1 168.5L174.7 167.5L181.4 156.2C181.5 156 181.7 155.8 181.8 155.6C182 155.3 182.2 155.2 182.3 155.1C182.4 154.6 182.9 154.2 183.5 154ZM185.4 163.5L180.9 171.2L180.5 172C180.3 172.4 180.1 172.8 180 173.2C179.9 173.6 179.8 174 179.8 174.4C179.8 175.1 179.9 175.8 180.2 176.5C180.5 177.1 180.9 177.7 181.4 178.2C181.9 178.7 182.5 179.1 183.2 179.4C183.9 179.7 184.6 179.8 185.4 179.8C186.2 179.8 186.9 179.6 187.6 179.4C188.3 179.1 188.9 178.7 189.4 178.2L189.5 178.1C190 177.6 190.3 177.1 190.6 176.5C190.9 175.9 191 175.2 191 174.5C191 174.1 190.9 173.7 190.8 173.3C190.7 172.9 190.6 172.6 190.4 172.2L189.9 171.3L185.4 163.5Z" fill="#0237BF"/>
</svg>
