<svg width="240" height="240" viewBox="0 0 240 240" fill="none" xmlns="http://www.w3.org/2000/svg">
<path d="M162.9 88V80H96.8999V88H162.9Z" fill="#5C8AFF"/>
<path d="M87.5 88V80H73.5V88H87.5Z" fill="#5C8AFF"/>
<path d="M65.5 116L65.5 124L131.5 124L131.5 116L65.5 116Z" fill="#5C8AFF"/>
<path d="M140.9 116L140.9 124L154.9 124L154.9 116L140.9 116Z" fill="#5C8AFF"/>
<path d="M83.5 134L83.5 142L149.5 142L149.5 134L83.5 134Z" fill="#5C8AFF"/>
<path d="M158.9 134L158.9 142L172.9 142L172.9 134L158.9 134Z" fill="#5C8AFF"/>
<path d="M196.5 106V98H143.5V106H196.5Z" fill="#5C8AFF"/>
<path d="M186.5 160V152H133.5V160H186.5Z" fill="#5C8AFF"/>
<path d="M133.5 106V98H120.5V106H133.5Z" fill="#5C8AFF"/>
<path d="M73.5 142V134H60.5V142H73.5Z" fill="#5C8AFF"/>
<path d="M124.5 160V152H111.5V160H124.5Z" fill="#5C8AFF"/>
<path d="M110.5 106V98H47.5V106H110.5Z" fill="#5C8AFF"/>
<path d="M101.5 160V152H38.5V160H101.5Z" fill="#5C8AFF"/>
</svg>
