<svg width="240" height="240" viewBox="0 0 240 240" fill="none" xmlns="http://www.w3.org/2000/svg">
<path d="M187 123.5H169.8V123.3V123.2L168.7 116.1H187.1C191.3 116.1 195.2 114.4 197.9 111.7C200.7 109 202.4 105.3 202.4 101.2C202.4 100.1 202.3 98.9998 202.1 97.9998C201.3 94.6998 199.4 91.7998 196.8 89.6998C194.2 87.5998 190.9 86.3998 187.3 86.3998C186.1 86.3998 185 86.4998 183.9 86.7998L183.2 86.8998L180.5 87.4998L179.1 85.1998L178.7 84.5999C177.4 82.1999 175.4 80.2998 173.1 78.9998C170.8 77.6998 168.1 76.8998 165.4 76.8998C164.7 76.8998 164 76.8998 163.3 76.9998C162.6 77.0998 161.9 77.1998 161.2 77.3998L160.4 77.5999L157.4 78.4998L156 75.7998L155.6 75.0999C154.3 72.5999 152.3 70.4999 150 69.0999C147.7 67.6999 144.9 66.8998 142 66.8998C137.8 66.8998 134 68.5998 131.2 71.2998C128.4 73.9998 126.7 77.6998 126.7 81.7998V82.6998V85.5999L123.8 86.2998L122.9 86.4998L122.4 86.5999C118.5 86.9999 115.1 88.7998 112.7 91.3998C110.3 93.9998 108.8 97.4998 108.8 101.4C108.8 105.5 110.5 109.2 113.3 111.9C116.1 114.6 119.9 116.3 124.1 116.3H126.5C126.1 117.1 125.7 117.8 125.4 118.6C124.8 120.2 124.3 121.9 124 123.6C117.7 123.6 112.1 121.1 108 117.1C103.9 113.1 101.3 107.6 101.3 101.4C101.3 95.6998 103.5 90.4999 107.1 86.5999C110.2 83.1999 114.4 80.7998 119.3 79.7998C119.8 74.5998 122.2 69.8998 125.9 66.2998C130 62.2998 135.7 59.7998 142 59.7998C146.3 59.7998 150.4 60.9999 153.9 63.0999C156.8 64.7999 159.3 67.1999 161.2 70.0999C161.6 69.9999 161.9 69.9998 162.3 69.8998C163.4 69.7998 164.4 69.6998 165.4 69.6998C169.5 69.6998 173.5 70.7998 176.9 72.7998C179.8 74.3998 182.3 76.6998 184.2 79.4998C185.2 79.3998 186.3 79.2998 187.3 79.2998C192.7 79.2998 197.7 81.1998 201.6 84.2998C205.5 87.3998 208.3 91.6998 209.4 96.6998C209.8 98.2998 209.9 99.8998 209.9 101.5C209.9 107.6 207.3 113.1 203.2 117.2C199 121 193.3 123.5 187 123.5Z" fill="#0237BF"/>
<path d="M100.4 112.5H56.2C49 112.5 42.4 109.6 37.7 104.9C33 100.2 30 93.7999 30 86.5999C30 84.6999 30.2 82.8999 30.6 80.9999C31.9 75.1999 35.2 70.0999 39.6 66.4999C44.1 62.8999 49.8 60.6999 56.1 60.6999C57.4 60.6999 58.7 60.7999 60 60.9999C62.2 57.5999 65.2 54.7999 68.7 52.7999C72.7 50.4999 77.3 49.1999 82 49.1999C83.2 49.1999 84.4 49.2999 85.7 49.4999C86.2 49.5999 86.7999 49.6999 87.2999 49.7999C89.4999 46.1999 92.5 43.2999 96 41.1999C100 38.6999 104.8 37.3999 109.7 37.3999C116.9 37.3999 123.5 40.2999 128.2 44.9999C131.2 47.8999 133.4 51.4999 134.7 55.5999C132.3 56.2999 129.9 57.2999 127.8 58.5999C126.9 55.3999 125.2 52.4999 122.9 50.1999C119.5 46.8999 114.8 44.7999 109.7 44.7999C106.2 44.7999 102.8 45.7999 99.9 47.4999C97 49.2999 94.6 51.7999 93 54.8999L92.6 55.6999L91.2 58.4999L88.2 57.5999L87.2999 57.2999C86.4999 57.0999 85.6 56.8999 84.7 56.7999C83.9 56.6999 83 56.5999 82.1 56.5999C78.7 56.5999 75.4 57.4999 72.6 59.1999C69.8 60.7999 67.4 63.1999 65.7 66.1999L65.2999 66.8999L64 69.2999L61.2999 68.6999L60.5 68.4999C59.1 68.1999 57.6999 68.0999 56.2999 68.0999C51.8999 68.0999 47.8 69.6999 44.6 72.1999C41.4 74.7999 39 78.3999 38.1 82.5999C37.8 83.7999 37.7 85.1999 37.7 86.5999C37.7 91.6999 39.8 96.2999 43.2 99.6999C46.6 103 51.3 105.1 56.4 105.1H98.1C98.3 107.7 99.2 110.1 100.4 112.5Z" fill="#0237BF"/>
<path d="M156.4 97.3999C157.1 97.3999 157.9 97.4999 158.6 97.7999C159.3 98.0999 160 98.4999 160.5 98.9999C161 99.4999 161.4 100.1 161.7 100.8C161.8 101.1 161.9 101.3 162 101.6C162.1 101.9 162.2 102.2 162.2 102.5L165.6 123.7L165.9 125.6V125.8C166 127.3 166 128.7 165.8 130.2C165.6 131.6 165.2 133 164.7 134.5C163.7 136.9 162.3 138.9 160.6 140.6C158.8 142.4 156.7 143.7 154.4 144.7C152.1 145.6 149.6 146.1 147.1 146.1C144.7 146.1 142.2 145.6 139.8 144.7C137.4 143.7 135.2 142.3 133.5 140.7C131.6 138.9 130.2 136.9 129.2 134.6C128.2 132.3 127.6 129.9 127.5 127.4C127.4 125 127.9 122.5 128.8 120.1C129.4 118.7 130.1 117.4 130.9 116.2C131.8 115 132.8 113.9 134 112.9L134.1 112.8L135.5 111.7L152.7 98.7999C153 98.5999 153.2 98.3999 153.5 98.2999C153.8 98.0999 154 97.9999 154.3 97.8999C154.9 97.4999 155.6 97.3999 156.4 97.3999ZM155 106.6L140.2 117.8L138.9 118.8C138.2 119.4 137.6 120 137.1 120.7C136.6 121.4 136.2 122.1 135.9 122.9C135.3 124.3 135.1 125.7 135.1 127.1C135.1 128.5 135.5 130 136.1 131.3C136.7 132.7 137.6 133.9 138.7 135C139.8 136 141.1 136.9 142.6 137.5C144.1 138.1 145.6 138.4 147.1 138.4C148.6 138.4 150.1 138.1 151.5 137.6C152.9 137.1 154.1 136.2 155.1 135.2C156.1 134.2 156.9 133 157.5 131.7C157.8 130.9 158 130.1 158.1 129.3C158.2 128.5 158.2 127.6 158.2 126.8L157.9 125L155 106.6Z" fill="#0237BF"/>
<path d="M116.3 134.8C116.9 134.8 117.6 134.9 118.2 135.2C118.8 135.5 119.4 135.8 119.8 136.3C120.2 136.7 120.6 137.3 120.8 137.9C120.9 138.1 121 138.4 121 138.6C121.1 138.8 121.1 139.1 121.1 139.3L123.1 152.7L123.3 153.9V154.1C123.4 155.1 123.4 156.2 123.2 157.2C123.1 158.2 122.8 159.2 122.4 160.2C121.7 161.9 120.8 163.3 119.6 164.6C118.4 165.9 116.9 166.9 115.4 167.5L115.2 167.6C113.7 168.2 112.1 168.5 110.4 168.6C108.8 168.6 107.1 168.3 105.4 167.6C103.8 166.9 102.3 165.9 101.2 164.8C100 163.6 98.9999 162.1 98.2999 160.5C97.5999 158.9 97.2 157.1 97.2 155.4C97.2 153.7 97.5 151.9 98.1 150.3C98.5 149.3 99 148.4 99.6 147.6C100.2 146.7 100.9 145.9 101.7 145.3L101.8 145.2L102.7 144.5L113.1 136.2C113.3 136 113.5 135.9 113.7 135.8C114 135.6 114.2 135.5 114.3 135.5C115.1 134.9 115.7 134.8 116.3 134.8ZM114.5 144.7L107.4 150.3L106.7 150.9C106.4 151.2 106.1 151.5 105.8 151.9C105.6 152.2 105.4 152.6 105.2 153C104.9 153.7 104.8 154.4 104.8 155.1C104.8 155.8 105 156.6 105.3 157.2C105.6 157.9 106 158.5 106.5 159C107 159.5 107.7 160 108.4 160.3C109.1 160.6 109.8 160.7 110.6 160.7C111.3 160.7 112.1 160.5 112.7 160.3L112.9 160.2C113.5 159.9 114.1 159.5 114.5 159.1C115 158.6 115.4 158 115.7 157.3C115.8 156.9 115.9 156.5 116 156.1C116.1 155.7 116.1 155.3 116 154.9L115.9 153.9L114.5 144.7Z" fill="#0237BF"/>
<path d="M191.5 134.8C192.1 134.8 192.8 134.9 193.4 135.2C194 135.5 194.6 135.8 195 136.3C195.4 136.7 195.8 137.3 196 137.9C196.1 138.1 196.2 138.4 196.3 138.6C196.4 138.8 196.4 139.1 196.4 139.3L198.4 152.7L198.6 153.9V154.1C198.7 155.1 198.7 156.2 198.5 157.2C198.4 158.2 198.1 159.2 197.7 160.2C197 161.9 196.1 163.3 194.9 164.5C193.7 165.8 192.2 166.7 190.7 167.4L190.5 167.5C189 168.1 187.4 168.4 185.7 168.5C184.1 168.5 182.4 168.2 180.7 167.5C179.1 166.8 177.6 165.8 176.4 164.7C175.2 163.5 174.2 162 173.5 160.4C172.8 158.8 172.4 157 172.4 155.3C172.4 153.6 172.7 151.8 173.3 150.2C173.7 149.2 174.2 148.3 174.8 147.5C175.4 146.6 176.1 145.8 176.9 145.2L177 145.1L177.9 144.4L188.3 136.1C188.5 135.9 188.7 135.8 188.9 135.7C189.2 135.5 189.4 135.4 189.5 135.4C190.2 135 190.9 134.8 191.5 134.8ZM189.7 144.7L182.6 150.3L181.9 150.9C181.6 151.2 181.3 151.5 181 151.9C180.8 152.2 180.6 152.6 180.4 153C180.1 153.7 180 154.4 180 155.1C180 155.8 180.2 156.6 180.5 157.2C180.8 157.9 181.2 158.5 181.7 159C182.2 159.5 182.9 160 183.6 160.2C184.3 160.5 185 160.6 185.8 160.6C186.5 160.6 187.3 160.4 187.9 160.2L188.1 160.1C188.7 159.8 189.3 159.4 189.7 159C190.2 158.5 190.6 157.9 190.9 157.2C191 156.8 191.1 156.4 191.2 156C191.3 155.6 191.3 155.2 191.2 154.8L191.1 153.8L189.7 144.7Z" fill="#0237BF"/>
<path d="M155.3 153.6C156 153.6 156.8 153.7 157.4 154C158.1 154.3 158.7 154.7 159.2 155.2C159.7 155.7 160.1 156.3 160.4 157C160.5 157.3 160.6 157.5 160.7 157.8C160.8 158.1 160.8 158.4 160.9 158.7L164.2 179.9L164.5 181.8V182C164.6 183.5 164.6 184.9 164.4 186.4C164.2 187.8 163.9 189.2 163.3 190.7C162.4 193.1 161 195.1 159.3 196.8C157.6 198.6 155.5 199.9 153.3 200.9C151.1 201.8 148.7 202.3 146.2 202.3C143.8 202.3 141.4 201.8 139.1 200.9C136.8 199.9 134.7 198.5 133 196.9C131.2 195.1 129.8 193.1 128.8 190.8C127.8 188.5 127.3 186.1 127.2 183.6C127.1 181.2 127.5 178.7 128.5 176.3C129 174.9 129.7 173.6 130.6 172.4C131.5 171.2 132.5 170.1 133.5 169.1L133.6 169L135 167.9L151.5 155C151.8 154.8 152 154.6 152.2 154.5C152.5 154.3 152.7 154.2 153 154.1C153.9 153.7 154.6 153.6 155.3 153.6ZM154 162.8L139.7 174L138.5 175C137.8 175.6 137.3 176.2 136.8 176.9C136.3 177.6 135.9 178.3 135.6 179.1C135.1 180.5 134.8 181.9 134.9 183.3C134.9 184.7 135.3 186.2 135.8 187.5C136.4 188.9 137.2 190.1 138.3 191.2C139.4 192.2 140.6 193.1 142 193.7C143.4 194.3 144.9 194.6 146.4 194.6C147.9 194.6 149.3 194.3 150.6 193.8C151.9 193.3 153.1 192.5 154.1 191.4C155.1 190.4 155.8 189.2 156.4 187.9C156.7 187.1 156.9 186.3 157 185.5C157.1 184.7 157.1 183.8 157.1 183L156.8 181.2L154 162.8Z" fill="#0237BF"/>
<path d="M84.2999 153.6C84.9999 153.6 85.8 153.7 86.4 154C87.1 154.3 87.7 154.7 88.2 155.2C88.7 155.7 89.1 156.3 89.4 157C89.5 157.3 89.6 157.5 89.7 157.8C89.8 158.1 89.8 158.4 89.9 158.7L93.2 179.9L93.5 181.8V182C93.6 183.5 93.6 184.9 93.4 186.4C93.2 187.8 92.8999 189.2 92.2999 190.7C91.3999 193.1 89.9999 195.1 88.2999 196.8C86.5999 198.6 84.4999 199.9 82.2999 200.9C80.0999 201.8 77.7 202.3 75.2 202.3C72.8 202.3 70.4 201.8 68.1 200.9C65.8 199.9 63.7 198.5 62 196.9C60.2 195.1 58.7999 193.1 57.7999 190.8C56.7999 188.5 56.3 186.1 56.2 183.6C56.1 181.2 56.5 178.7 57.5 176.3C58 174.9 58.7 173.6 59.6 172.4C60.5 171.2 61.5 170.1 62.5 169.1L62.6 169L64 167.9L80.5 155C80.8 154.8 81 154.6 81.2 154.5C81.5 154.3 81.7 154.2 82 154.1C82.9 153.7 83.6999 153.6 84.2999 153.6ZM83.1 162.8L68.7999 174L67.6 175C66.9 175.6 66.4 176.2 65.9 176.9C65.4 177.6 65 178.3 64.7 179.1C64.2 180.5 63.9 181.9 64 183.3C64 184.7 64.4 186.2 64.9 187.5C65.5 188.9 66.3 190.1 67.4 191.2C68.5 192.2 69.7 193.1 71.1 193.7C72.5 194.3 74 194.6 75.5 194.6C77 194.6 78.4 194.3 79.7 193.8C81 193.3 82.2 192.5 83.2 191.4C84.2 190.4 84.9 189.2 85.5 187.9C85.8 187.1 86 186.3 86.1 185.5C86.2 184.7 86.2 183.8 86.2 183L85.9 181.2L83.1 162.8Z" fill="#0237BF"/>
<path d="M82.6 116.1C83.2 116.1 83.9 116.2 84.5 116.5C85.1 116.8 85.7 117.1 86.1 117.6C86.5 118 86.9 118.6 87.1 119.2C87.2 119.4 87.2999 119.7 87.2999 119.9C87.3999 120.1 87.4 120.4 87.4 120.6L89.4 134L89.6 135.2V135.4C89.7 136.4 89.7 137.5 89.5 138.5C89.4 139.5 89.1 140.5 88.7 141.5C88 143.2 87.1 144.6 85.9 145.8C84.7 147.1 83.2 148 81.7 148.7L81.5 148.8C80 149.4 78.4 149.7 76.7 149.8C75.1 149.8 73.4 149.5 71.7 148.8C70.1 148.1 68.6 147.1 67.5 146C66.3 144.8 65.3 143.3 64.6 141.7C63.9 140.1 63.5 138.4 63.5 136.6C63.5 134.9 63.8 133.2 64.4 131.5C64.8 130.5 65.3 129.6 65.9 128.8C66.5 127.9 67.2 127.2 68 126.5L68.1 126.4L69 125.7L79.4 117.5C79.6 117.3 79.8 117.2 80 117.1C80.3 116.9 80.5 116.8 80.6 116.8C81.4 116.2 82 116.1 82.6 116.1ZM80.7999 126L73.7 131.6L73 132.2C72.7 132.5 72.4 132.8 72.1 133.2C71.9 133.5 71.7 133.9 71.5 134.3C71.2 135 71.1 135.7 71.1 136.4C71.1 137.1 71.3 137.8 71.6 138.5C71.9 139.2 72.2999 139.8 72.7999 140.3C73.2999 140.8 73.9 141.3 74.7 141.5C75.4 141.8 76.1 141.9 76.9 141.9C77.6 141.9 78.4 141.7 79 141.5L79.2 141.4C79.8 141.1 80.3999 140.7 80.7999 140.3C81.2999 139.8 81.7 139.2 82 138.5C82.1 138.1 82.1999 137.7 82.2999 137.3C82.3999 136.9 82.3999 136.5 82.2999 136.1L82.2 135.1L80.7999 126Z" fill="#0237BF"/>
</svg>
