<svg width="240" height="240" viewBox="0 0 240 240" fill="none" xmlns="http://www.w3.org/2000/svg">
<path fill-rule="evenodd" clip-rule="evenodd" d="M140.5 136.5L142.4 161L123.7 146.1V163.7L149.1 178.4C150.9 179.4 151.5 181.7 150.5 183.5C149.5 185.3 147.2 185.9 145.4 184.9L123.8 172.4V182.8L134.8 189.2C136.6 190.2 137.2 192.5 136.2 194.3C135.2 196.1 132.9 196.7 131.1 195.7L123.9 191.5V205.9C123.9 207.9 122.3 209.6 120.2 209.6H120.1H120C118 209.6 116.3 207.9 116.3 205.9V191.5L109.1 195.7C107.3 196.7 105 196.1 104 194.3C103 192.5 103.6 190.2 105.4 189.2L116.4 182.8V172.4L94.8 184.9C93 185.9 90.7 185.3 89.7 183.5C88.7 181.7 89.3 179.4 91.1 178.4L116.5 163.7V146.1L97.8 161L99.7 136.5L82.9 146.2V176C82.9 178.1 81.2 179.7 79.2 179.7C77.1 179.7 75.4 178 75.4 176V150.5L67.9 155V168.5C67.9 170.6 66.2 172.2 64.2 172.2C62.1 172.2 60.4 170.5 60.4 168.5V159.3L47.2 166.7C46.6 167 46 167.2 45.3 167.2C44 167.2 42.7 166.5 42.1 165.3C41.1 163.5 41.7 161.2 43.5 160.2L56.8 152.5L48.1 147.6C46.3 146.6 45.7 144.3 46.7 142.5C47.7 140.7 50 140.1 51.8 141.1L64.3 148.2L73.3 143L50.6 129.5C48.8 128.5 48.2 126.2 49.2 124.4C50.2 122.6 52.5 122 54.3 123L80.8 138.7L95.9 130L73.9 120.3L74.8 119.9H74.9H74.8L73.9 119.5L95.9 109.8L80.8 101.1L54.3 116.8C52.5 117.8 50.2 117.2 49.2 115.4C48.2 113.6 48.8 111.3 50.6 110.3L73.3 96.7999L64.3 91.6L51.8 98.7C50 99.7 47.7 99.0999 46.7 97.2999C45.7 95.4999 46.3 93.2 48.1 92.2L56.8 87.2999L43.5 79.6C41.7 78.6 41.1 76.3 42.1 74.5C42.8 73.3 44 72.6 45.3 72.6C46 72.6 46.6 72.8 47.2 73.1L60.4 80.5V71.2999C60.4 69.1999 62.1 67.6 64.2 67.6C66.3 67.6 67.9 69.2999 67.9 71.2999V84.7999L75.4 89.2999V63.7999C75.4 61.6999 77.1 60.1 79.2 60.1C81.3 60.1 82.9 61.7999 82.9 63.7999V93.6L99.7 103.3L97.4 78.7L116.1 93.6V76L90.7 61.2999C88.9 60.2999 88.3 58 89.3 56.2C90.3 54.4 92.6 53.7999 94.4 54.7999L116 67.2999V56.8999L105 50.5C103.2 49.5 102.6 47.1999 103.6 45.3999C104.6 43.5999 106.9 43 108.7 44L115.9 48.2V33.7C115.9 31.7 117.5 30 119.6 30H119.7H119.8C121.8 30 123.5 31.7 123.5 33.7V48.1L130.7 43.8999C132.5 42.8999 134.8 43.4999 135.8 45.2999C136.8 47.0999 136.2 49.3999 134.4 50.3999L123.4 56.7999V67.2L145 54.7C146.8 53.7 149.1 54.3 150.1 56.1C151.1 57.9 150.5 60.2 148.7 61.2L123.3 75.8999V93.5L142.4 78.7L140.5 103.2L157.3 93.5V63.7C157.3 61.6 159 60 161 60C163.1 60 164.8 61.7 164.8 63.7V89.2L172.3 84.7V71.2C172.3 69.1 174 67.5 176 67.5C178.1 67.5 179.8 69.2 179.8 71.2V80.3999L193 73C193.6 72.7 194.2 72.5 194.9 72.5C196.2 72.5 197.5 73.1999 198.1 74.3999C199.1 76.1999 198.5 78.5 196.7 79.5L183.4 87.2L192.1 92.1C193.9 93.1 194.5 95.4 193.5 97.2C192.5 99 190.2 99.6 188.4 98.6L175.9 91.5L166.9 96.7L189.6 110.2C191.4 111.2 192 113.5 191 115.3C190 117.1 187.7 117.7 185.9 116.7L159.4 101L144.3 109.7L166.3 119.4L165.5 119.7L165.3 119.8L165.5 119.9L166.3 120.2L144.3 129.9L159.4 138.6L185.9 122.9C187.7 121.9 190 122.5 191 124.3C192 126.1 191.4 128.4 189.6 129.4L166.9 142.9L175.9 148.1L188.4 141C190.2 140 192.5 140.6 193.5 142.4C194.5 144.2 193.9 146.5 192.1 147.5L183.4 152.4L196.7 160.1C198.5 161.1 199.1 163.4 198.1 165.2C197.4 166.4 196.2 167.1 194.9 167.1C194.2 167.1 193.6 166.9 193 166.6L179.8 159.2V168.4C179.8 170.5 178.1 172.1 176 172.1C173.9 172.1 172.3 170.4 172.3 168.4V154.9L164.8 150.4V175.9C164.8 178 163.1 179.6 161 179.6C158.9 179.6 157.3 177.9 157.3 175.9V146.1L140.5 136.5ZM92.5 119.9H92.6L107.6 127L106.2 143.6L119.9 134.1L133.6 143.6L132.2 127L147.1 120L147.3 119.9L147.1 119.8L132.2 112.8L133.6 96.2L119.9 105.7L106.2 96.2L107.6 112.8L92.6 119.9H92.5Z" fill="#2FADE2"/>
</svg>
