<svg width="240" height="240" viewBox="0 0 240 240" fill="none" xmlns="http://www.w3.org/2000/svg">
<path d="M143.4 72.9002C147.6 70.0002 152.4 68.6002 157.3 68.4002C161.4 68.3002 165.5 69.1002 169.1 70.8002C172.8 72.5002 176.1 75.1002 178.4 78.5002C180.7 81.8002 182.1 85.9002 182.3 90.5002C182.3 90.7002 182.3 90.9001 182.3 91.1001C182.3 97.4001 179.9 103.6 176.1 108.2C172.2 113 166.7 116.2 160.6 116.4C160.5 116.4 160.4 116.4 160.2 116.4H31.8V108.9H160.2C160.2 108.9 160.3 108.9 160.4 108.9C164.1 108.8 167.6 106.7 170.3 103.5C173.1 100.1 174.8 95.7001 174.8 91.2001C174.8 91.1001 174.8 91.0002 174.8 90.8002C174.7 87.7002 173.8 85.0002 172.3 82.9002C170.7 80.7002 168.5 78.9001 166 77.7001C163.4 76.5001 160.4 75.9002 157.5 76.0002C154.1 76.1002 150.7 77.1001 147.7 79.1001L143.4 72.9002Z" fill="#5C8AFF"/>
<path d="M177 164.5C179.9 166.5 183 167.4 186 167.4C188.9 167.4 191.7 166.6 194.2 165.2C196.8 163.8 199.1 161.8 200.8 159.3C202.8 156.4 204.1 152.9 204.1 149.1C204.1 144.6 202.2 139.8 199.2 136.2C196.6 133.1 193.2 131 189.5 131H31.8V123.5H189.5C195.6 123.5 201 126.7 205 131.4C209.1 136.3 211.6 142.8 211.6 149.1C211.6 154.5 209.8 159.5 207 163.6C204.6 167 201.5 169.8 197.9 171.8C194.3 173.8 190.2 174.9 186.1 174.9C181.6 174.9 177 173.6 172.8 170.6L177 164.5Z" fill="#5C8AFF"/>
<path d="M106.7 69.2001C110.7 66.4001 115.3 65.1001 119.7 65.1001C122.7 65.1001 125.6 65.7001 128.3 67.0001C131 68.3001 133.4 70.2001 135.1 72.7001C137.1 75.6001 138.3 79.1001 138.3 83.4001C138.3 88.0001 136 92.7001 132.5 96.1001C129.1 99.5001 124.5 101.8 119.9 101.8H53.9V94.3002H119.9C122.4 94.3002 125.1 92.9002 127.2 90.8002C129.3 88.7002 130.8 86.0001 130.8 83.4001C130.8 80.8001 130.1 78.6001 129 77.0001C128 75.6001 126.7 74.5002 125.2 73.8002C123.6 73.0002 121.7 72.7001 119.8 72.7001C116.8 72.7001 113.7 73.6001 111.1 75.5001L106.7 69.2001Z" fill="#5C8AFF"/>
<path d="M144.4 161.1C145.4 162 146.6 162.6 147.8 163.1C149.4 163.6 151.2 163.8 152.9 163.8C154.6 163.8 156.3 162.9 157.7 161.5C159.2 160 160.2 158.1 160.2 156.5V156.4C160.2 153.7 159.5 150.8 158.1 148.7C156.9 146.9 155.2 145.6 153 145.6H65V138.1H153H153.1C158.2 138.1 161.9 140.8 164.4 144.5C166.6 147.9 167.8 152.3 167.8 156.4V156.5C167.8 160.1 166 163.9 163.1 166.8C160.5 169.4 156.9 171.3 153 171.3C150.6 171.3 148 171 145.6 170.2C143.4 169.5 141.3 168.3 139.5 166.7L144.4 161.1Z" fill="#5C8AFF"/>
</svg>
