<svg width="240" height="240" viewBox="0 0 240 240" fill="none" xmlns="http://www.w3.org/2000/svg">
<path d="M66.6 173.8L98.8 149.8H83.6L81.4 143.1L117.3 116.1H98.6L96 109.6L123.9 82.2L129 87.7L108 108.6H128.5L130.8 115.3L94.8 142.3H109.8L112.1 149L71.2 179.8L66.6 173.8Z" fill="#8719DE"/>
<path d="M162.4 44.8C170.5 44.8 178 47.5 184 52.2C189.8 56.7 194.1 62.9 196.3 70C200.3 73 203.6 76.9 205.9 81.4C208.4 86.1 209.8 91.5 209.8 97.1C209.8 106.5 206 115 199.8 121.2C194.5 126.5 187.7 130.7 179.9 131.1H163.8L161.3 123.6H179.8C185.6 122.8 190.8 119.8 194.8 115.9C199.6 111.1 202.3 104.5 202.3 97.1C202.3 92.7 201.5 88.5 199.6 84.9C197.6 81.1 194.7 77.8 191.2 75.4L189.7 73.3C188.1 67.2 184.5 61.9 179.7 58.2C174.9 54.5 168.9 52.3 162.4 52.3C156.9 52.3 151.8 53.8 147.5 56.5C143.1 59.2 139.4 63.2 137.1 67.9L135.3 71.6L132 69.3C130.4 68.2 128.7 67.4 126.8 66.8C125 66.2 123.1 65.9 121.1 65.9C116.2 65.9 111.7 67.8 108.3 70.8C104.9 73.9 102.6 78.1 102.2 82.9L101.8 86.8L98.1 86.2C97.7 86.1 97.1 86.1 96.5 86C96 86 95.5 85.9 94.9 85.9C89.6 85.9 84.8 88 81.4 91.5C78 94.9 74.9 99.6 74.9 104.8C74.9 109.9 77.9 114.6 81.2 117.9C84.5 121.3 88.5 123.6 93.6 123.6H101.1L91.3 131C90.7 130.9 90.2 130.7 88.8 130.4C83.9 129.2 79.5 126.7 76.1 123.2C71.5 118.4 67.4 112 67.4 104.8C67.4 97.5 71.6 90.9 76.3 86.2C81.1 81.5 87.6 78.5 94.8 78.5C95.1 78.5 95.3 78.5 95.6 78.5C96.9 73.3 99.7 68.7 103.5 65.2C108.2 61 114.3 58.4 121 58.4C123.7 58.4 126.3 58.8 128.8 59.6C130.1 60 131.4 60.5 132.6 61.1C135.5 56.6 139.3 52.9 143.8 50.1C149.3 46.7 155.6 44.8 162.4 44.8Z" fill="#8719DE"/>
<path d="M148.8 41.8001C146.4 42.7001 144.1 43.9 141.9 45.2C141.7 45.3 141.6 45.4 141.4 45.5C124.7 34.8 105.8 43.4 97.3 60.9C81.9 50 66.7 57.3 63.5 76.5C50.7 74.3 37.1 81.2 37.1 96.1C37.1 101.5 39.2 106.3 42.6 109.9C47 114.5 52.7 115.9 58.3 116.1C61.2 116.2 64.4 116.1 67.3 116.1C68.4 118.9 69.4 121.1 71.3 123.5C58.8 123.5 47.3 125.5 37.5 115.2C32.8 110.2 29.9 103.5 29.9 96C29.9 80.3 42.7 68.1 57.6 68.6C61.5 52.2 82 43.8001 94.7 50.3001C106 32.2001 132.5 28.1001 148.8 41.8001Z" fill="#8719DE"/>
<path d="M96.6 196.3L129.3 168.5H114.1L111.8 161.8L147.8 134.8H129.1L126.5 128.3L157.4 100.6L162.5 106.1L138.5 127.3H159L161.3 134.1L125.3 161H140.3L142.6 167.8L101.1 202.2L96.6 196.3Z" fill="#8719DE"/>
</svg>
