<svg width="240" height="240" viewBox="0 0 240 240" fill="none" xmlns="http://www.w3.org/2000/svg">
<path d="M118.2 36.9C97.1 36.9 78 38.8 64.3 41.9C52 44.7 44.3 47.9 44.3 51C44.3 54.1 51.9 57.3 64.3 60.1C78 63.2 97.1 65.1 118.2 65.1C139.3 65.1 158.4 63.2 172.1 60.1C184.4 57.3 192.1 54.1 192.1 51C192.1 47.9 184.5 44.7 172.1 41.9C158.4 38.8 139.4 36.9 118.2 36.9ZM62.8 35.2C77.1 32 96.7 30 118.2 30C139.8 30 159.4 32 173.6 35.2C189.3 38.8 198.9 44.3 198.9 51C198.9 57.7 189.2 63.2 173.6 66.8C159.3 70 139.7 72 118.2 72C96.6 72 77 70 62.8 66.8C47.1 63.2 37.5 57.7 37.5 51C37.5 44.3 47.1 38.8 62.8 35.2Z" fill="#5C8AFF"/>
<path d="M91.4 49.9001C89.2 50.1001 87.2 50.4001 85.5 50.7001C86.5 50.7001 87.7 50.8001 88.9 51.0001C96.3 51.9001 106.7 52.5001 118.2 52.5001C129.7 52.5001 140.1 51.9001 147.5 51.0001C148.7 50.8001 149.9 50.8001 150.9 50.7001C150.2 50.6001 149.5 50.5001 148.7 50.4001L149.6 43.6001C153.4 44.1001 156.4 44.7001 158.4 45.4001C161.8 46.5001 163.7 48.3001 163.7 50.6001C163.7 54.1001 157.8 56.6002 148.4 57.8002C140.6 58.8002 129.9 59.4001 118.2 59.4001C106.5 59.4001 95.8 58.8002 88 57.8002C78.5 56.6002 72.7 54.1001 72.7 50.6001C72.7 48.1001 74.9 46.2001 79.1 45.0001C81.8 44.2001 85.7 43.6001 90.6 43.1001L91.4 49.9001Z" fill="#5C8AFF"/>
<path d="M180.9 58.8C185.2 60.2 191.1 63.1 193.5 64.9C196.5 67.1 198 69.6 198 72.4C198 78.7 189 83.9 174.4 87.2C161.2 90.2 143.1 92 123.2 92C103.3 92 85.2 90.2 72 87.2C57.4 83.9 48.4 78.7 48.4 72.4C48.4 69.7 49.9 67.2 52.9 65C55.2 63.3 58.5 61.7 62.8 60.2L65 66.7C61.4 67.9 58.7 69.2 57 70.5C55.9 71.3 55.3 72 55.3 72.4C55.3 75 62.3 77.9 73.5 80.5C86.2 83.4 103.7 85.1 123.2 85.1C142.7 85.1 160.2 83.3 172.9 80.5C184.1 78 191.1 75.1 191.1 72.4C191.1 71.9 190.5 71.3 189.4 70.4C187.6 69.1 182.4 66.5 178.7 65.3L180.9 58.8Z" fill="#5C8AFF"/>
<path d="M180.5 79.2C186.3 80.6 190.9 82.2 194 84C198 86.3 200.2 89.1 200.2 92.2C200.2 98 192.1 102.7 179.1 105.6C167.5 108.2 151.5 109.9 133.9 109.9C116.3 109.9 100.3 108.3 88.7 105.6C75.7 102.7 67.6 97.9 67.6 92.2C67.6 89.8 68.8 87.7 71.2 85.7C73 84.2 75.5 84.5 78.8 83.2L81.3 88C78.7 89 76.8 90 75.6 91C74.9 91.5 74.6 91.9 74.6 92.1C74.6 94.2 80.6 96.6 90.3 98.8C101.4 101.3 116.9 102.9 134 102.9C151.1 102.9 166.6 101.3 177.7 98.8C187.4 96.6 193.4 94.2 193.4 92.1C193.4 91.6 192.5 90.9 190.7 89.9C188.1 88.4 183.5 86.9 178.3 85.7L180.5 79.2Z" fill="#5C8AFF"/>
<path d="M165.8 102.5C175 103.5 182.6 105 187.9 106.8C194.5 109 198.1 112.2 198.1 115.9C198.1 120.9 190.9 124.8 179.4 127.2C169.3 129.3 155.4 130.6 140.2 130.6C125 130.6 111.1 129.3 101 127.2C89.4 124.8 82.3 120.8 82.3 115.9C82.3 112.5 85.2 109.7 90.6 107.5C100.6 103.5 107.4 97.9 109 108.3C107.3 108.5 89.2 114.3 89.2 115.8C89.2 117 94.2 118.7 102.4 120.4C112 122.4 125.4 123.6 140.2 123.6C155 123.6 168.4 122.4 178 120.4C186.2 118.7 191.2 117 191.2 115.8C191.2 113.3 166.3 108.4 163.9 108.1L165.8 102.5Z" fill="#5C8AFF"/>
<path d="M175.3 123.8C183 124.7 186.3 123.9 190.7 125.5C196.3 127.6 199.4 130.5 199.4 134C199.4 138.7 193.2 142.4 183.1 144.7C174.4 146.6 162.5 147.8 149.5 147.8C136.4 147.8 124.5 146.6 115.9 144.7C105.8 142.4 99.6 138.7 99.6 134C99.6 131.1 101.6 128.7 105.5 126.7C108.4 125.2 107.2 127.3 112.3 126.3L119 129.7C114.5 130.6 111 131.7 108.7 132.9C107.4 133.6 106.6 134 106.6 134C106.6 135 110.8 136.5 117.5 138C125.7 139.8 137 141 149.6 141C162.2 141 173.6 139.9 181.7 138C188.4 136.5 192.6 135 192.6 134C192.6 133.7 191.1 133 188.4 131.9C184.5 130.4 178.8 129.2 171.6 128.3L175.3 123.8Z" fill="#5C8AFF"/>
<path d="M175.8 141.2C182.4 141.9 184.4 140.4 188.2 141.8C193.2 143.7 196 146.4 196 149.7C196 153.9 191.2 157.1 183.3 159.1C176.8 160.7 167.8 161.7 158 161.7C148.2 161.7 139.3 160.7 132.7 159.1C124.9 157.2 120 153.9 120 149.7C120 146.8 122 144.4 125.8 142.6C134.8 140.6 137 139.2 138.4 146.1C130.1 147.5 119.8 148.8 134.1 152.3C140.2 153.8 148.6 154.7 158 154.7C167.4 154.7 175.8 153.8 181.9 152.3C200.1 147.9 177.9 145.9 171.6 145.3L175.8 141.2Z" fill="#5C8AFF"/>
<path d="M169.2 158.3C176.3 158.7 179.2 155.9 183.5 157.2C189.2 158.9 192.5 161.5 192.5 164.9C192.5 168.7 188 171.6 180.7 173.3C174.8 174.7 166.8 175.5 158.1 175.5C149.3 175.5 141.3 174.7 135.5 173.3C128.2 171.6 123.7 168.7 123.7 164.9C123.7 161.5 127.2 158.8 133.2 157.1C137.8 155.8 137.3 159.8 144.7 159.5L152 161.4C148 161.6 120.3 162.7 137.2 166.6C142.5 167.8 149.9 168.6 158.1 168.6C166.3 168.6 173.7 167.8 179 166.6C195.2 162.9 169.9 161.7 165.5 161.4L169.2 158.3Z" fill="#5C8AFF"/>
<path d="M165.9 172.6C171.8 173.8 178.7 172.6 178.7 181.1C178.7 184.4 175.2 186.8 169.5 188C165.2 188.9 159.3 189.3 152.8 189.1C146.4 188.8 140.5 187.9 136.1 186.7C130.4 185.1 126.9 182.4 126.9 179.1C126.9 176.3 129.2 174.2 133.2 172.9C136 172 139.9 171.4 144.6 171.1L146.6 174.5C146.3 174.5 130.6 178 137.7 180C141.5 181.1 146.8 181.9 152.8 182.1C159.9 182.4 182 178.8 161.4 175.6L165.9 172.6Z" fill="#5C8AFF"/>
<path d="M159.8 183C163 183.7 165.6 184.5 167.4 185.5C170.2 187 171.8 189.1 171.8 191.5C171.8 194.8 168.7 197.1 163.7 198.3C160 199.2 154.9 199.6 149.4 199.4C143.9 199.2 138.8 198.3 135.1 197.1C130.1 195.5 127 192.9 127 189.6C127 186.8 129.2 184.6 133 183.4C135.7 182.5 139.3 181.9 143.6 181.7L145.6 188.3C127 189.1 139.5 191.9 149.3 192.3C154.8 192.5 172.1 191.2 155.8 187.8L159.8 183Z" fill="#5C8AFF"/>
<path d="M152.3 193.3C154.9 193.9 157 194.7 158.4 195.6C160.7 197 161.9 198.9 161.9 201.1C161.9 204.3 159.3 206.7 155 208.2C151.9 209.2 147.7 209.9 143.1 209.9C138.5 209.9 134.3 209.3 131.2 208.2C126.9 206.8 124.3 204.3 124.3 201.1C124.3 198.4 126.2 196.2 129.4 194.7C131.6 193.7 134.7 192.9 138.3 192.6L142.9 198.6C140.1 198.9 133.8 200.4 132.2 201.1C132.5 201.1 132.8 201.2 133.2 201.3C135.7 202.1 139.2 202.7 143.2 202.7C147.1 202.7 150.7 202.2 153.2 201.3C155.3 200.6 151 199.1 150.2 198.9L152.3 193.3Z" fill="#5C8AFF"/>
</svg>
